<svg width="560" height="652" viewBox="0 0 560 652" fill="none" xmlns="http://www.w3.org/2000/svg">
<g clip-path="url(#clip0_797_1668)">
<rect x="36" y="72" width="440" height="544" rx="16" fill="#4074BC" fill-opacity="0.03"/>
<rect x="-4" y="507" width="423" height="183" rx="16" fill="white"/>
<path opacity="0.3" d="M127.111 649.12L123 658H419V570.124L414.889 570.962C410.778 571.801 402.555 573.477 394.334 581.028C386.111 588.578 377.889 602.004 369.666 607.416C361.445 612.828 353.222 610.229 345 593.895C336.778 577.563 328.555 547.496 320.334 542.72C312.111 537.943 303.889 558.456 295.666 559.905C287.445 561.353 279.222 543.735 271 549.092C262.778 554.448 254.555 582.778 246.334 590.677C238.111 598.575 229.889 586.043 221.666 590.35C213.445 594.654 205.222 615.798 197 625.121C188.778 634.446 180.555 631.949 172.334 626.578C164.111 621.209 155.889 612.965 147.666 617.723C139.445 622.482 131.222 640.241 127.111 649.12Z" fill="#E2E8F0"/>
<path d="M123 658L127.111 649.12C131.222 640.241 139.445 622.482 147.666 617.723C155.889 612.965 164.111 621.209 172.334 626.578C180.555 631.949 188.778 634.446 197 625.121C205.222 615.798 213.445 594.654 221.666 590.35C229.889 586.043 238.111 598.575 246.334 590.677C254.555 582.778 262.778 554.448 271 549.092C279.222 543.735 287.445 561.353 295.666 559.905C303.889 558.456 312.111 537.943 320.334 542.72C328.555 547.496 336.778 577.563 345 593.895C353.222 610.229 361.445 612.828 369.666 607.416C377.889 602.004 386.111 588.578 394.334 581.028C402.555 573.477 410.778 571.801 414.889 570.962L419 570.124" stroke="#E2E8F0" stroke-width="2" stroke-linecap="round"/>
<path d="M79 539H35C31.134 539 28 542.134 28 546C28 549.866 31.134 553 35 553H79C82.866 553 86 549.866 86 546C86 542.134 82.866 539 79 539Z" fill="#CBD5E1"/>
<path d="M115 539H101C97.134 539 94 542.134 94 546C94 549.866 97.134 553 101 553H115C118.866 553 122 549.866 122 546C122 542.134 118.866 539 115 539Z" fill="#CBD5E1"/>
<rect x="-22" y="-24" width="356" height="266" rx="16" fill="white"/>
<path d="M55.8867 205.695V58.3047" stroke="#ECEFF1" stroke-width="0.61" stroke-linecap="round"/>
<path d="M80.8086 205.695V58.3047" stroke="#ECEFF1" stroke-width="0.61" stroke-linecap="round"/>
<path d="M105.734 205.695V58.3047" stroke="#ECEFF1" stroke-width="0.61" stroke-linecap="round"/>
<path d="M130.656 205.695V58.3047" stroke="#ECEFF1" stroke-width="0.61" stroke-linecap="round"/>
<path d="M155.578 205.695V58.3047" stroke="#ECEFF1" stroke-width="0.61" stroke-linecap="round"/>
<path d="M180.504 205.695V58.3047" stroke="#ECEFF1" stroke-width="0.61" stroke-linecap="round"/>
<path d="M205.426 205.695V58.3047" stroke="#ECEFF1" stroke-width="0.61" stroke-linecap="round"/>
<path d="M230.348 205.695V58.3047" stroke="#ECEFF1" stroke-width="0.61" stroke-linecap="round"/>
<path d="M255.273 205.695V58.3047" stroke="#ECEFF1" stroke-width="0.61" stroke-linecap="round"/>
<path d="M280.195 205.695V58.3047" stroke="#ECEFF1" stroke-width="0.61" stroke-linecap="round"/>
<path d="M36.2695 189C36.2695 186.239 34.031 184 31.2695 184C28.5081 184 26.2695 186.239 26.2695 189V201C26.2695 203.761 28.5081 206 31.2695 206C34.031 206 36.2695 203.761 36.2695 201V189Z" fill="#CBD5E1"/>
<path d="M61.1914 181C61.1914 178.239 58.9528 176 56.1914 176C53.43 176 51.1914 178.239 51.1914 181V189C51.1914 191.761 53.43 194 56.1914 194C58.9528 194 61.1914 191.761 61.1914 189V181Z" fill="#CBD5E1"/>
<path d="M86.1172 146C86.1172 143.239 83.8786 141 81.1172 141C78.3558 141 76.1172 143.239 76.1172 146V167C76.1172 169.761 78.3558 172 81.1172 172C83.8786 172 86.1172 169.761 86.1172 167V146Z" fill="#CBD5E1"/>
<path d="M111.039 167C111.039 164.239 108.8 162 106.039 162C103.278 162 101.039 164.239 101.039 167V175C101.039 177.761 103.278 180 106.039 180C108.8 180 111.039 177.761 111.039 175V167Z" fill="#CBD5E1"/>
<path d="M135.961 159C135.961 156.239 133.722 154 130.961 154C128.2 154 125.961 156.239 125.961 159V187C125.961 189.761 128.2 192 130.961 192C133.722 192 135.961 189.761 135.961 187V159Z" fill="#CBD5E1"/>
<path d="M160.5 173C160.5 170.239 158.261 168 155.5 168C152.739 168 150.5 170.239 150.5 173V183C150.5 185.761 152.739 188 155.5 188C158.261 188 160.5 185.761 160.5 183V173Z" fill="#CBD5E1"/>
<path d="M185.344 169C185.344 166.239 183.105 164 180.344 164C177.582 164 175.344 166.239 175.344 169V195C175.344 197.761 177.582 200 180.344 200C183.105 200 185.344 197.761 185.344 195V169Z" fill="#CBD5E1"/>
<path d="M211.195 97C211.195 94.2386 208.957 92 206.195 92C203.434 92 201.195 94.2386 201.195 97V175C201.195 177.761 203.434 180 206.195 180C208.957 180 211.195 177.761 211.195 175V97Z" fill="#CBD5E1"/>
<path d="M236.039 125C236.039 122.239 233.8 120 231.039 120C228.278 120 226.039 122.239 226.039 125V138C226.039 140.761 228.278 143 231.039 143C233.8 143 236.039 140.761 236.039 138V125Z" fill="#CBD5E1"/>
<path d="M260.883 98C260.883 95.2386 258.644 93 255.883 93C253.121 93 250.883 95.2386 250.883 98V117C250.883 119.761 253.121 122 255.883 122C258.644 122 260.883 119.761 260.883 117V98Z" fill="#CBD5E1"/>
<path d="M285.73 110C285.73 107.239 283.492 105 280.73 105C277.969 105 275.73 107.239 275.73 110V148C275.73 150.761 277.969 153 280.73 153C283.492 153 285.73 150.761 285.73 148V110Z" fill="#CBD5E1"/>
</g>
<rect x="36.5" y="72.5" width="439" height="543" rx="15.5" stroke="#94A3B8" stroke-opacity="0.1"/>
<g filter="url(#filter0_d_797_1668)">
<rect x="89" y="278" width="423" height="183" rx="16" fill="white"/>
</g>
<path d="M155 310H128C124.134 310 121 313.134 121 317C121 320.866 124.134 324 128 324H155C158.866 324 162 320.866 162 317C162 313.134 158.866 310 155 310Z" fill="#ECEFF1"/>
<path d="M225 310H177C173.134 310 170 313.134 170 317C170 320.866 173.134 324 177 324H225C228.866 324 232 320.866 232 317C232 313.134 228.866 310 225 310Z" fill="#ECEFF1"/>
<path d="M167.706 362.699C172.661 364.396 177.114 367.301 180.663 371.152C184.212 375.003 186.745 379.678 188.033 384.754C189.321 389.83 189.322 395.147 188.038 400.224C186.754 405.301 184.225 409.978 180.678 413.831C177.132 417.684 172.681 420.593 167.728 422.293C162.775 423.994 157.476 424.432 152.311 423.57C147.145 422.707 142.277 420.57 138.145 417.352C134.013 414.135 130.749 409.937 128.648 405.141" stroke="#EC4899" stroke-width="10" stroke-linecap="round"/>
<path d="M126.379 387.623C127.305 381.709 129.898 376.182 133.853 371.688C137.807 367.194 142.961 363.921 148.709 362.25" stroke="#E2E8F0" stroke-width="10" stroke-linecap="round"/>
<path d="M246 375C246 371.686 243.314 369 240 369C236.686 369 234 371.686 234 375C234 378.314 236.686 381 240 381C243.314 381 246 378.314 246 375Z" fill="#EC4899"/>
<path d="M278 371H262C259.791 371 258 372.791 258 375C258 377.209 259.791 379 262 379H278C280.209 379 282 377.209 282 375C282 372.791 280.209 371 278 371Z" fill="#ECEFF1"/>
<path d="M380 371H292C289.791 371 288 372.791 288 375C288 377.209 289.791 379 292 379H380C382.209 379 384 377.209 384 375C384 372.791 382.209 371 380 371Z" fill="#ECEFF1"/>
<path d="M495 371H407C404.791 371 403 372.791 403 375C403 377.209 404.791 379 407 379H495C497.209 379 499 377.209 499 375C499 372.791 497.209 371 495 371Z" fill="#ECEFF1"/>
<path d="M246 410C246 406.686 243.314 404 240 404C236.686 404 234 406.686 234 410C234 413.314 236.686 416 240 416C243.314 416 246 413.314 246 410Z" fill="#F0F3F7"/>
<path d="M267 406H262C259.791 406 258 407.791 258 410C258 412.209 259.791 414 262 414H267C269.209 414 271 412.209 271 410C271 407.791 269.209 406 267 406Z" fill="#ECEFF1"/>
<path d="M384 406H281C278.791 406 277 407.791 277 410C277 412.209 278.791 414 281 414H384C386.209 414 388 412.209 388 410C388 407.791 386.209 406 384 406Z" fill="#ECEFF1"/>
<path d="M444 406H411C408.791 406 407 407.791 407 410C407 412.209 408.791 414 411 414H444C446.209 414 448 412.209 448 410C448 407.791 446.209 406 444 406Z" fill="#ECEFF1"/>
<defs>
<filter id="filter0_d_797_1668" x="51" y="250" width="499" height="259" filterUnits="userSpaceOnUse" color-interpolation-filters="sRGB">
<feFlood flood-opacity="0" result="BackgroundImageFix"/>
<feColorMatrix in="SourceAlpha" type="matrix" values="0 0 0 0 0 0 0 0 0 0 0 0 0 0 0 0 0 0 127 0" result="hardAlpha"/>
<feOffset dy="10"/>
<feGaussianBlur stdDeviation="19"/>
<feColorMatrix type="matrix" values="0 0 0 0 0.0941176 0 0 0 0 0.152941 0 0 0 0 0.294118 0 0 0 0.06 0"/>
<feBlend mode="normal" in2="BackgroundImageFix" result="effect1_dropShadow_797_1668"/>
<feBlend mode="normal" in="SourceGraphic" in2="effect1_dropShadow_797_1668" result="shape"/>
</filter>
<clipPath id="clip0_797_1668">
<rect x="36" y="72" width="440" height="544" rx="16" fill="white"/>
</clipPath>
</defs>
</svg>
