<svg width="560" height="376" viewBox="0 0 560 376" fill="none" xmlns="http://www.w3.org/2000/svg">
<g clip-path="url(#clip0_799_1723)">
<g clip-path="url(#clip1_799_1723)">
<rect x="36" y="72" width="440" height="266" rx="16" fill="#4074BC" fill-opacity="0.03"/>
</g>
<rect x="36.5" y="72.5" width="439" height="265" rx="15.5" stroke="#94A3B8" stroke-opacity="0.1"/>
<g filter="url(#filter0_d_799_1723)">
<rect x="168" y="36" width="356" height="266" rx="16" fill="white"/>
<path d="M220.965 265.695V118.305" stroke="#ECEFF1" stroke-width="0.61" stroke-linecap="round"/>
<path d="M245.887 265.695V118.305" stroke="#ECEFF1" stroke-width="0.61" stroke-linecap="round"/>
<path d="M270.809 265.695V118.305" stroke="#ECEFF1" stroke-width="0.61" stroke-linecap="round"/>
<path d="M295.734 265.695V118.305" stroke="#ECEFF1" stroke-width="0.61" stroke-linecap="round"/>
<path d="M320.656 265.695V118.305" stroke="#ECEFF1" stroke-width="0.61" stroke-linecap="round"/>
<path d="M345.578 265.695V118.305" stroke="#ECEFF1" stroke-width="0.61" stroke-linecap="round"/>
<path d="M370.504 265.695V118.305" stroke="#ECEFF1" stroke-width="0.61" stroke-linecap="round"/>
<path d="M395.426 265.695V118.305" stroke="#ECEFF1" stroke-width="0.61" stroke-linecap="round"/>
<path d="M420.348 265.695V118.305" stroke="#ECEFF1" stroke-width="0.61" stroke-linecap="round"/>
<path d="M445.273 265.695V118.305" stroke="#ECEFF1" stroke-width="0.61" stroke-linecap="round"/>
<path d="M470.195 265.695V118.305" stroke="#ECEFF1" stroke-width="0.61" stroke-linecap="round"/>
<path d="M243.27 72H223.27C219.404 72 216.27 75.134 216.27 79C216.27 82.866 219.404 86 223.27 86H243.27C247.136 86 250.27 82.866 250.27 79C250.27 75.134 247.136 72 243.27 72Z" fill="#ECEFF1"/>
<path d="M319.27 72H265.27C261.404 72 258.27 75.134 258.27 79C258.27 82.866 261.404 86 265.27 86H319.27C323.136 86 326.27 82.866 326.27 79C326.27 75.134 323.136 72 319.27 72Z" fill="#ECEFF1"/>
<path d="M226.27 249C226.27 246.239 224.031 244 221.27 244C218.508 244 216.27 246.239 216.27 249V261C216.27 263.761 218.508 266 221.27 266C224.031 266 226.27 263.761 226.27 261V249Z" fill="#EC4899"/>
<path d="M251.191 241C251.191 238.239 248.953 236 246.191 236C243.43 236 241.191 238.239 241.191 241V249C241.191 251.761 243.43 254 246.191 254C248.953 254 251.191 251.761 251.191 249V241Z" fill="#EC4899"/>
<path d="M276.117 206C276.117 203.239 273.879 201 271.117 201C268.356 201 266.117 203.239 266.117 206V227C266.117 229.761 268.356 232 271.117 232C273.879 232 276.117 229.761 276.117 227V206Z" fill="#EC4899"/>
<path d="M301.039 227C301.039 224.239 298.8 222 296.039 222C293.278 222 291.039 224.239 291.039 227V235C291.039 237.761 293.278 240 296.039 240C298.8 240 301.039 237.761 301.039 235V227Z" fill="#EC4899"/>
<path d="M325.961 219C325.961 216.239 323.722 214 320.961 214C318.2 214 315.961 216.239 315.961 219V247C315.961 249.761 318.2 252 320.961 252C323.722 252 325.961 249.761 325.961 247V219Z" fill="#EC4899"/>
<path d="M350.5 233C350.5 230.239 348.261 228 345.5 228C342.739 228 340.5 230.239 340.5 233V243C340.5 245.761 342.739 248 345.5 248C348.261 248 350.5 245.761 350.5 243V233Z" fill="#EC4899"/>
<path d="M375.344 229C375.344 226.239 373.105 224 370.344 224C367.582 224 365.344 226.239 365.344 229V255C365.344 257.761 367.582 260 370.344 260C373.105 260 375.344 257.761 375.344 255V229Z" fill="#EC4899"/>
<path d="M401.195 157C401.195 154.239 398.957 152 396.195 152C393.434 152 391.195 154.239 391.195 157V235C391.195 237.761 393.434 240 396.195 240C398.957 240 401.195 237.761 401.195 235V157Z" fill="#EC4899"/>
<path d="M426.039 185C426.039 182.239 423.8 180 421.039 180C418.278 180 416.039 182.239 416.039 185V198C416.039 200.761 418.278 203 421.039 203C423.8 203 426.039 200.761 426.039 198V185Z" fill="#EC4899"/>
<path d="M450.883 158C450.883 155.239 448.644 153 445.883 153C443.121 153 440.883 155.239 440.883 158V177C440.883 179.761 443.121 182 445.883 182C448.644 182 450.883 179.761 450.883 177V158Z" fill="#EC4899"/>
<path d="M475.73 170C475.73 167.239 473.492 165 470.73 165C467.969 165 465.73 167.239 465.73 170V208C465.73 210.761 467.969 213 470.73 213C473.492 213 475.73 210.761 475.73 208V170Z" fill="#EC4899"/>
</g>
</g>
<defs>
<filter id="filter0_d_799_1723" x="130" y="8" width="432" height="342" filterUnits="userSpaceOnUse" color-interpolation-filters="sRGB">
<feFlood flood-opacity="0" result="BackgroundImageFix"/>
<feColorMatrix in="SourceAlpha" type="matrix" values="0 0 0 0 0 0 0 0 0 0 0 0 0 0 0 0 0 0 127 0" result="hardAlpha"/>
<feOffset dy="10"/>
<feGaussianBlur stdDeviation="19"/>
<feColorMatrix type="matrix" values="0 0 0 0 0.0941176 0 0 0 0 0.152941 0 0 0 0 0.294118 0 0 0 0.06 0"/>
<feBlend mode="normal" in2="BackgroundImageFix" result="effect1_dropShadow_799_1723"/>
<feBlend mode="normal" in="SourceGraphic" in2="effect1_dropShadow_799_1723" result="shape"/>
</filter>
<clipPath id="clip0_799_1723">
<rect width="560" height="376" fill="white"/>
</clipPath>
<clipPath id="clip1_799_1723">
<rect x="36" y="72" width="440" height="266" rx="16" fill="white"/>
</clipPath>
</defs>
</svg>
