<svg width="560" height="396" viewBox="0 0 560 396" fill="none" xmlns="http://www.w3.org/2000/svg">
<g clip-path="url(#clip0_799_1836)">
<g clip-path="url(#clip1_799_1836)">
<rect x="38" y="72" width="440" height="266" rx="16" fill="#4074BC" fill-opacity="0.03"/>
<rect x="-2" y="247" width="423" height="183" rx="16" fill="white"/>
<path opacity="0.3" d="M129.111 389.12L125 398H421V310.124L416.889 310.962C412.778 311.801 404.555 313.477 396.334 321.028C388.111 328.578 379.889 342.004 371.666 347.416C363.445 352.828 355.222 350.229 347 333.895C338.778 317.563 330.555 287.496 322.334 282.72C314.111 277.943 305.889 298.456 297.666 299.905C289.445 301.353 281.222 283.735 273 289.092C264.778 294.448 256.555 322.778 248.334 330.677C240.111 338.575 231.889 326.043 223.666 330.35C215.445 334.654 207.222 355.798 199 365.121C190.778 374.446 182.555 371.949 174.334 366.578C166.111 361.209 157.889 352.965 149.666 357.723C141.445 362.482 133.222 380.241 129.111 389.12Z" fill="#E2E8F0"/>
<path d="M125 398L129.111 389.12C133.222 380.241 141.445 362.482 149.666 357.723C157.889 352.965 166.111 361.209 174.334 366.578C182.555 371.949 190.778 374.446 199 365.121C207.222 355.798 215.445 334.654 223.666 330.35C231.889 326.043 240.111 338.575 248.334 330.677C256.555 322.778 264.778 294.448 273 289.092C281.222 283.735 289.445 301.353 297.666 299.905C305.889 298.456 314.111 277.943 322.334 282.72C330.555 287.496 338.778 317.563 347 333.895C355.222 350.229 363.445 352.828 371.666 347.416C379.889 342.004 388.111 328.578 396.334 321.028C404.555 313.477 412.778 311.801 416.889 310.962L421 310.124" stroke="#E2E8F0" stroke-width="2" stroke-linecap="round"/>
<path d="M81 279H37C33.134 279 30 282.134 30 286C30 289.866 33.134 293 37 293H81C84.866 293 88 289.866 88 286C88 282.134 84.866 279 81 279Z" fill="#CBD5E1"/>
<path d="M117 279H103C99.134 279 96 282.134 96 286C96 289.866 99.134 293 103 293H117C120.866 293 124 289.866 124 286C124 282.134 120.866 279 117 279Z" fill="#CBD5E1"/>
</g>
<rect x="38.5" y="72.5" width="439" height="265" rx="15.5" stroke="#94A3B8" stroke-opacity="0.1"/>
<g filter="url(#filter0_d_799_1836)">
<rect x="89" y="18" width="423" height="183" rx="16" fill="white"/>
</g>
<path d="M155 50H128C124.134 50 121 53.134 121 57C121 60.866 124.134 64 128 64H155C158.866 64 162 60.866 162 57C162 53.134 158.866 50 155 50Z" fill="#ECEFF1"/>
<path d="M225 50H177C173.134 50 170 53.134 170 57C170 60.866 173.134 64 177 64H225C228.866 64 232 60.866 232 57C232 53.134 228.866 50 225 50Z" fill="#ECEFF1"/>
<path d="M167.706 102.699C172.661 104.396 177.114 107.301 180.663 111.152C184.212 115.003 186.745 119.678 188.033 124.754C189.321 129.83 189.322 135.147 188.038 140.224C186.754 145.301 184.225 149.978 180.678 153.831C177.132 157.684 172.681 160.593 167.728 162.293C162.775 163.994 157.476 164.432 152.311 163.57C147.145 162.707 142.277 160.57 138.145 157.352C134.013 154.135 130.749 149.937 128.648 145.141" stroke="#EC4899" stroke-width="10" stroke-linecap="round"/>
<path d="M126.379 127.623C127.305 121.709 129.898 116.182 133.853 111.688C137.807 107.194 142.961 103.921 148.709 102.25" stroke="#E2E8F0" stroke-width="10" stroke-linecap="round"/>
<path d="M246 115C246 111.686 243.314 109 240 109C236.686 109 234 111.686 234 115C234 118.314 236.686 121 240 121C243.314 121 246 118.314 246 115Z" fill="#EC4899"/>
<path d="M278 111H262C259.791 111 258 112.791 258 115C258 117.209 259.791 119 262 119H278C280.209 119 282 117.209 282 115C282 112.791 280.209 111 278 111Z" fill="#ECEFF1"/>
<path d="M380 111H292C289.791 111 288 112.791 288 115C288 117.209 289.791 119 292 119H380C382.209 119 384 117.209 384 115C384 112.791 382.209 111 380 111Z" fill="#ECEFF1"/>
<path d="M495 111H407C404.791 111 403 112.791 403 115C403 117.209 404.791 119 407 119H495C497.209 119 499 117.209 499 115C499 112.791 497.209 111 495 111Z" fill="#ECEFF1"/>
<path d="M246 150C246 146.686 243.314 144 240 144C236.686 144 234 146.686 234 150C234 153.314 236.686 156 240 156C243.314 156 246 153.314 246 150Z" fill="#F0F3F7"/>
<path d="M267 146H262C259.791 146 258 147.791 258 150C258 152.209 259.791 154 262 154H267C269.209 154 271 152.209 271 150C271 147.791 269.209 146 267 146Z" fill="#ECEFF1"/>
<path d="M384 146H281C278.791 146 277 147.791 277 150C277 152.209 278.791 154 281 154H384C386.209 154 388 152.209 388 150C388 147.791 386.209 146 384 146Z" fill="#ECEFF1"/>
<path d="M444 146H411C408.791 146 407 147.791 407 150C407 152.209 408.791 154 411 154H444C446.209 154 448 152.209 448 150C448 147.791 446.209 146 444 146Z" fill="#ECEFF1"/>
</g>
<defs>
<filter id="filter0_d_799_1836" x="51" y="-10" width="499" height="259" filterUnits="userSpaceOnUse" color-interpolation-filters="sRGB">
<feFlood flood-opacity="0" result="BackgroundImageFix"/>
<feColorMatrix in="SourceAlpha" type="matrix" values="0 0 0 0 0 0 0 0 0 0 0 0 0 0 0 0 0 0 127 0" result="hardAlpha"/>
<feOffset dy="10"/>
<feGaussianBlur stdDeviation="19"/>
<feColorMatrix type="matrix" values="0 0 0 0 0.0941176 0 0 0 0 0.152941 0 0 0 0 0.294118 0 0 0 0.06 0"/>
<feBlend mode="normal" in2="BackgroundImageFix" result="effect1_dropShadow_799_1836"/>
<feBlend mode="normal" in="SourceGraphic" in2="effect1_dropShadow_799_1836" result="shape"/>
</filter>
<clipPath id="clip0_799_1836">
<rect width="560" height="396" fill="white"/>
</clipPath>
<clipPath id="clip1_799_1836">
<rect x="38" y="72" width="440" height="266" rx="16" fill="white"/>
</clipPath>
</defs>
</svg>
