<svg width="560" height="652" viewBox="0 0 560 652" fill="none" xmlns="http://www.w3.org/2000/svg">
<g clip-path="url(#clip0_789_1195)">
<g clip-path="url(#clip1_789_1195)">
<rect x="36" y="72" width="440" height="544" rx="16" fill="#4074BC" fill-opacity="0.03"/>
<rect x="89" y="338" width="423" height="183" rx="16" fill="white"/>
<path d="M155 370H128C124.134 370 121 373.134 121 377C121 380.866 124.134 384 128 384H155C158.866 384 162 380.866 162 377C162 373.134 158.866 370 155 370Z" fill="#ECEFF1"/>
<path d="M225 370H177C173.134 370 170 373.134 170 377C170 380.866 173.134 384 177 384H225C228.866 384 232 380.866 232 377C232 373.134 228.866 370 225 370Z" fill="#ECEFF1"/>
<path d="M167.706 422.699C172.661 424.396 177.114 427.301 180.663 431.152C184.212 435.003 186.745 439.678 188.033 444.754C189.321 449.83 189.322 455.147 188.038 460.224C186.754 465.301 184.225 469.978 180.678 473.831C177.132 477.684 172.681 480.593 167.728 482.293C162.775 483.994 157.476 484.432 152.311 483.57C147.145 482.707 142.277 480.57 138.145 477.352C134.013 474.135 130.749 469.937 128.648 465.141" stroke="#94A3B8" stroke-width="10" stroke-linecap="round"/>
<path d="M126.379 447.623C127.305 441.709 129.898 436.182 133.853 431.688C137.807 427.194 142.961 423.921 148.709 422.25" stroke="#E2E8F0" stroke-width="10" stroke-linecap="round"/>
<path d="M246 435C246 431.686 243.314 429 240 429C236.686 429 234 431.686 234 435C234 438.314 236.686 441 240 441C243.314 441 246 438.314 246 435Z" fill="#94A3B8"/>
<path d="M278 431H262C259.791 431 258 432.791 258 435C258 437.209 259.791 439 262 439H278C280.209 439 282 437.209 282 435C282 432.791 280.209 431 278 431Z" fill="#ECEFF1"/>
<path d="M380 431H292C289.791 431 288 432.791 288 435C288 437.209 289.791 439 292 439H380C382.209 439 384 437.209 384 435C384 432.791 382.209 431 380 431Z" fill="#ECEFF1"/>
<path d="M495 431H407C404.791 431 403 432.791 403 435C403 437.209 404.791 439 407 439H495C497.209 439 499 437.209 499 435C499 432.791 497.209 431 495 431Z" fill="#ECEFF1"/>
<path d="M246 470C246 466.686 243.314 464 240 464C236.686 464 234 466.686 234 470C234 473.314 236.686 476 240 476C243.314 476 246 473.314 246 470Z" fill="#F0F3F7"/>
<path d="M267 466H262C259.791 466 258 467.791 258 470C258 472.209 259.791 474 262 474H267C269.209 474 271 472.209 271 470C271 467.791 269.209 466 267 466Z" fill="#ECEFF1"/>
<path d="M384 466H281C278.791 466 277 467.791 277 470C277 472.209 278.791 474 281 474H384C386.209 474 388 472.209 388 470C388 467.791 386.209 466 384 466Z" fill="#ECEFF1"/>
<path d="M444 466H411C408.791 466 407 467.791 407 470C407 472.209 408.791 474 411 474H444C446.209 474 448 472.209 448 470C448 467.791 446.209 466 444 466Z" fill="#ECEFF1"/>
<rect x="89" y="557" width="423" height="183" rx="16" fill="white"/>
<path opacity="0.3" d="M183.125 679.12L179 688H476V600.124L471.875 600.962C467.751 601.801 459.5 603.477 451.251 611.028C443 618.578 434.75 632.004 426.499 637.416C418.25 642.828 409.999 640.229 401.75 623.895C393.501 607.563 385.25 577.496 377.001 572.72C368.75 567.943 360.5 588.456 352.249 589.905C344 591.353 335.749 573.735 327.5 579.092C319.251 584.448 311 612.778 302.751 620.677C294.5 628.575 286.25 616.043 277.999 620.35C269.75 624.654 261.499 645.798 253.25 655.121C245.001 664.446 236.75 661.949 228.501 656.578C220.25 651.209 212 642.965 203.749 647.723C195.5 652.482 187.249 670.241 183.125 679.12Z" fill="#E2E8F0"/>
<path d="M179 688L183.125 679.12C187.249 670.241 195.5 652.482 203.749 647.723C212 642.965 220.25 651.209 228.501 656.578C236.75 661.949 245.001 664.446 253.25 655.121C261.499 645.798 269.75 624.654 277.999 620.35C286.25 616.043 294.5 628.575 302.751 620.677C311 612.778 319.251 584.448 327.5 579.092C335.749 573.735 344 591.353 352.249 589.905C360.5 588.456 368.75 567.943 377.001 572.72C385.25 577.496 393.501 607.563 401.75 623.895C409.999 640.229 418.25 642.828 426.499 637.416C434.75 632.004 443 618.578 451.251 611.028C459.5 603.477 467.751 601.801 471.875 600.962L476 600.124" stroke="#E2E8F0" stroke-width="2" stroke-linecap="round"/>
<path d="M172 589H128C124.134 589 121 592.134 121 596C121 599.866 124.134 603 128 603H172C175.866 603 179 599.866 179 596C179 592.134 175.866 589 172 589Z" fill="#CBD5E1"/>
<path d="M208 589H194C190.134 589 187 592.134 187 596C187 599.866 190.134 603 194 603H208C211.866 603 215 599.866 215 596C215 592.134 211.866 589 208 589Z" fill="#CBD5E1"/>
</g>
<rect x="36.5" y="72.5" width="439" height="543" rx="15.5" stroke="#94A3B8" stroke-opacity="0.1"/>
<g filter="url(#filter0_d_789_1195)">
<rect x="168" y="36" width="356" height="266" rx="16" fill="white"/>
<path d="M220.965 265.695V118.305" stroke="#ECEFF1" stroke-width="0.61" stroke-linecap="round"/>
<path d="M245.887 265.695V118.305" stroke="#ECEFF1" stroke-width="0.61" stroke-linecap="round"/>
<path d="M270.809 265.695V118.305" stroke="#ECEFF1" stroke-width="0.61" stroke-linecap="round"/>
<path d="M295.734 265.695V118.305" stroke="#ECEFF1" stroke-width="0.61" stroke-linecap="round"/>
<path d="M320.656 265.695V118.305" stroke="#ECEFF1" stroke-width="0.61" stroke-linecap="round"/>
<path d="M345.578 265.695V118.305" stroke="#ECEFF1" stroke-width="0.61" stroke-linecap="round"/>
<path d="M370.504 265.695V118.305" stroke="#ECEFF1" stroke-width="0.61" stroke-linecap="round"/>
<path d="M395.426 265.695V118.305" stroke="#ECEFF1" stroke-width="0.61" stroke-linecap="round"/>
<path d="M420.348 265.695V118.305" stroke="#ECEFF1" stroke-width="0.61" stroke-linecap="round"/>
<path d="M445.273 265.695V118.305" stroke="#ECEFF1" stroke-width="0.61" stroke-linecap="round"/>
<path d="M470.195 265.695V118.305" stroke="#ECEFF1" stroke-width="0.61" stroke-linecap="round"/>
<path d="M243.27 72H223.27C219.404 72 216.27 75.134 216.27 79C216.27 82.866 219.404 86 223.27 86H243.27C247.136 86 250.27 82.866 250.27 79C250.27 75.134 247.136 72 243.27 72Z" fill="#ECEFF1"/>
<path d="M319.27 72H265.27C261.404 72 258.27 75.134 258.27 79C258.27 82.866 261.404 86 265.27 86H319.27C323.136 86 326.27 82.866 326.27 79C326.27 75.134 323.136 72 319.27 72Z" fill="#ECEFF1"/>
<path d="M226.27 249C226.27 246.239 224.031 244 221.27 244C218.508 244 216.27 246.239 216.27 249V261C216.27 263.761 218.508 266 221.27 266C224.031 266 226.27 263.761 226.27 261V249Z" fill="#EC4899"/>
<path d="M251.191 241C251.191 238.239 248.953 236 246.191 236C243.43 236 241.191 238.239 241.191 241V249C241.191 251.761 243.43 254 246.191 254C248.953 254 251.191 251.761 251.191 249V241Z" fill="#EC4899"/>
<path d="M276.117 206C276.117 203.239 273.879 201 271.117 201C268.356 201 266.117 203.239 266.117 206V227C266.117 229.761 268.356 232 271.117 232C273.879 232 276.117 229.761 276.117 227V206Z" fill="#EC4899"/>
<path d="M301.039 227C301.039 224.239 298.8 222 296.039 222C293.278 222 291.039 224.239 291.039 227V235C291.039 237.761 293.278 240 296.039 240C298.8 240 301.039 237.761 301.039 235V227Z" fill="#EC4899"/>
<path d="M325.961 219C325.961 216.239 323.722 214 320.961 214C318.2 214 315.961 216.239 315.961 219V247C315.961 249.761 318.2 252 320.961 252C323.722 252 325.961 249.761 325.961 247V219Z" fill="#EC4899"/>
<path d="M350.5 233C350.5 230.239 348.261 228 345.5 228C342.739 228 340.5 230.239 340.5 233V243C340.5 245.761 342.739 248 345.5 248C348.261 248 350.5 245.761 350.5 243V233Z" fill="#EC4899"/>
<path d="M375.344 229C375.344 226.239 373.105 224 370.344 224C367.582 224 365.344 226.239 365.344 229V255C365.344 257.761 367.582 260 370.344 260C373.105 260 375.344 257.761 375.344 255V229Z" fill="#EC4899"/>
<path d="M401.195 157C401.195 154.239 398.957 152 396.195 152C393.434 152 391.195 154.239 391.195 157V235C391.195 237.761 393.434 240 396.195 240C398.957 240 401.195 237.761 401.195 235V157Z" fill="#EC4899"/>
<path d="M426.039 185C426.039 182.239 423.8 180 421.039 180C418.278 180 416.039 182.239 416.039 185V198C416.039 200.761 418.278 203 421.039 203C423.8 203 426.039 200.761 426.039 198V185Z" fill="#EC4899"/>
<path d="M450.883 158C450.883 155.239 448.644 153 445.883 153C443.121 153 440.883 155.239 440.883 158V177C440.883 179.761 443.121 182 445.883 182C448.644 182 450.883 179.761 450.883 177V158Z" fill="#EC4899"/>
<path d="M475.73 170C475.73 167.239 473.492 165 470.73 165C467.969 165 465.73 167.239 465.73 170V208C465.73 210.761 467.969 213 470.73 213C473.492 213 475.73 210.761 475.73 208V170Z" fill="#EC4899"/>
</g>
</g>
<defs>
<filter id="filter0_d_789_1195" x="130" y="8" width="432" height="342" filterUnits="userSpaceOnUse" color-interpolation-filters="sRGB">
<feFlood flood-opacity="0" result="BackgroundImageFix"/>
<feColorMatrix in="SourceAlpha" type="matrix" values="0 0 0 0 0 0 0 0 0 0 0 0 0 0 0 0 0 0 127 0" result="hardAlpha"/>
<feOffset dy="10"/>
<feGaussianBlur stdDeviation="19"/>
<feColorMatrix type="matrix" values="0 0 0 0 0.0941176 0 0 0 0 0.152941 0 0 0 0 0.294118 0 0 0 0.06 0"/>
<feBlend mode="normal" in2="BackgroundImageFix" result="effect1_dropShadow_789_1195"/>
<feBlend mode="normal" in="SourceGraphic" in2="effect1_dropShadow_789_1195" result="shape"/>
</filter>
<clipPath id="clip0_789_1195">
<rect width="560" height="652" fill="white"/>
</clipPath>
<clipPath id="clip1_789_1195">
<rect x="36" y="72" width="440" height="544" rx="16" fill="white"/>
</clipPath>
</defs>
</svg>
