<svg width="24" height="24" viewBox="0 0 24 24" fill="none" xmlns="http://www.w3.org/2000/svg">
<path d="M15.295 7.94923L12.0081 11.2762L4.7281 3.90744C4.76867 3.88645 4.81078 3.86489 4.85433 3.84283C5.35475 3.58941 6.03731 3.27558 6.77622 3.02613C7.52069 2.7748 8.29006 2.6 8.97291 2.6C9.65322 2.6 10.183 2.77156 10.5478 3.14084L15.295 7.94923Z" stroke="#334155" stroke-width="1.2"/>
<path d="M7.87761 8.80278L11.1645 12.1297L3.88762 19.4953C3.86875 19.4578 3.84942 19.4191 3.82969 19.3792C3.57916 18.8724 3.26877 18.1808 3.02199 17.4319C2.77344 16.6775 2.6 15.8964 2.6 15.2019C2.6 14.5085 2.77117 13.9681 3.13732 13.5975L7.87761 8.80278Z" stroke="#334155" stroke-width="1.2"/>
<path d="M10.9449 11.5358C7.97804 11.5702 6.03472 11.7477 4.76428 11.9523L8.00787 8.67148C8.2175 8.78429 8.51497 8.96552 8.86625 9.23926C9.45718 9.69973 10.205 10.4255 10.9449 11.5358Z" fill="#334155" stroke="#334155" stroke-width="1.2"/>
<path d="M12.0071 12.9826L19.2847 20.3489C19.2449 20.3695 19.2036 20.3907 19.1609 20.4123C18.6605 20.6657 17.9779 20.9795 17.239 21.229C16.4945 21.4803 15.7251 21.6551 15.0423 21.6551C14.362 21.6551 13.8322 21.4836 13.4674 21.1143L8.72039 16.3094L12.0071 12.9826Z" stroke="#334155" stroke-width="1.2"/>
<path d="M11.4131 13.2067C11.4472 16.2032 11.6222 18.1665 11.8237 19.4504L8.59358 16.1808C8.70487 15.9675 8.88579 15.6614 9.16144 15.299C9.61441 14.7034 10.3264 13.9513 11.4131 13.2067Z" fill="#334155" stroke="#334155" stroke-width="1.2"/>
<path d="M12.8512 12.1303L20.1257 4.76719C20.1442 4.80389 20.1631 4.84179 20.1824 4.88084C20.4329 5.38767 20.7433 6.07926 20.9901 6.82819C21.2386 7.5825 21.4121 8.36364 21.4121 9.05813C21.4121 9.75156 21.2409 10.292 20.8748 10.6626L16.138 15.4571L12.8512 12.1303Z" stroke="#334155" stroke-width="1.2"/>
<path d="M13.071 12.722C16.0368 12.6875 17.9794 12.5099 19.2493 12.3053L16.0079 15.5862C15.7983 15.4734 15.5008 15.2922 15.1496 15.0185C14.5587 14.558 13.8108 13.8322 13.071 12.722ZM16.3391 15.7434L16.3391 15.7434L16.3391 15.7434Z" fill="#334155" stroke="#334155" stroke-width="1.2"/>
<path d="M12.6021 11.0514C12.5681 8.05402 12.3932 6.0899 12.1916 4.80551L15.4217 8.07719C15.3104 8.29054 15.1294 8.59666 14.8537 8.95916C14.4008 9.55472 13.6887 10.3068 12.6021 11.0514Z" fill="#334155" stroke="#334155" stroke-width="1.2"/>
</svg>
