<svg
									xmlns="http://www.w3.org/2000/svg"
									fill="none"
									viewBox="0 0 48 48"
									height="16"
									width="16"
									aria-label="Social Media icon"
								>
									<path
										fill="currentColor"
										d="M34.7229 4.69819C36.9179 5.13151 38.8231 6.226 39.9574 7.46121L44.8741 7.22772C46.162 7.16656 46.9576 8.61264 46.216 9.66758L42.8041 14.5217C43.7777 35.6815 22.2547 49.0961 4.54954 41.2208C3.75067 40.8654 3.58181 40.0439 3.74682 39.4029C3.91015 38.7685 4.4337 38.1304 5.23631 38.0329C7.74782 37.7279 10.886 36.8951 13.5309 34.8102C11.3351 34.4801 8.87383 33.2203 6.77118 31.5522C4.25179 29.5535 2.11595 26.8651 1.53319 24.2321C1.41942 23.7181 1.60805 23.2504 1.94754 22.9478C2.27981 22.6517 2.75116 22.5146 3.22643 22.6022C4.4998 22.8369 6.44397 23.1705 7.93366 23.3225C7.82715 23.2095 7.71399 23.0872 7.59534 22.9561C6.83881 22.1198 5.85466 20.9171 4.947 19.4528C3.13974 16.5372 1.58717 12.5021 2.86967 8.24191C3.04524 7.65872 3.52191 7.3215 4.02883 7.2399C4.52724 7.15967 5.07712 7.31911 5.46709 7.72851C7.80814 10.1862 13.7896 15.4057 22.914 16.1638C22.5823 14.0277 22.368 9.45707 27.2507 6.17582C29.7236 4.51405 32.4029 4.2402 34.7229 4.69819Z"
									></path>
								</svg>