<svg width="480" height="230" viewBox="0 0 480 230" fill="none" xmlns="http://www.w3.org/2000/svg">
<g clip-path="url(#clip0_753_1218)">
<path d="M474.422 32H52.5778C41.213 32 32 39.1634 32 48V312C32 320.837 41.213 328 52.5778 328H474.422C485.787 328 495 320.837 495 312V48C495 39.1634 485.787 32 474.422 32Z" fill="white"/>
<path d="M91 69H71C67.134 69 64 72.134 64 76C64 79.866 67.134 83 71 83H91C94.866 83 98 79.866 98 76C98 72.134 94.866 69 91 69Z" fill="#ECEFF1"/>
<path d="M167 69H113C109.134 69 106 72.134 106 76C106 79.866 109.134 83 113 83H167C170.866 83 174 79.866 174 76C174 72.134 170.866 69 167 69Z" fill="#ECEFF1"/>
<path d="M444 77H439V82C439 82.55 438.55 83 438 83C437.45 83 437 82.55 437 82V77H432C431.45 77 431 76.55 431 76C431 75.45 431.45 75 432 75H437V70C437 69.45 437.45 69 438 69C438.55 69 439 69.45 439 70V75H444C444.55 75 445 75.45 445 76C445 76.55 444.55 77 444 77Z" fill="#CFD8DC"/>
<path d="M74 130C74 127.239 71.7614 125 69 125C66.2386 125 64 127.239 64 130C64 132.761 66.2386 135 69 135C71.7614 135 74 132.761 74 130Z" fill="#EC4899"/>
<path d="M136 125H95C92.2386 125 90 127.239 90 130C90 132.761 92.2386 135 95 135H136C138.761 135 141 132.761 141 130C141 127.239 138.761 125 136 125Z" fill="#ECEFF1"/>
<path d="M169 125H154C151.239 125 149 127.239 149 130C149 132.761 151.239 135 154 135H169C171.761 135 174 132.761 174 130C174 127.239 171.761 125 169 125Z" fill="#ECEFF1"/>
<path d="M440 120H426C420.477 120 416 124.477 416 130C416 135.523 420.477 140 426 140H440C445.523 140 450 135.523 450 130C450 124.477 445.523 120 440 120Z" fill="#EC4899"/>
<path d="M439.873 137C443.668 137 446.745 133.866 446.745 130C446.745 126.134 443.668 123 439.873 123C436.077 123 433 126.134 433 130C433 133.866 436.077 137 439.873 137Z" fill="white"/>
<path d="M74 169C74 166.239 71.7614 164 69 164C66.2386 164 64 166.239 64 169C64 171.761 66.2386 174 69 174C71.7614 174 74 171.761 74 169Z" fill="#CFD8DC"/>
<path d="M123 164H95C92.2386 164 90 166.239 90 169C90 171.761 92.2386 174 95 174H123C125.761 174 128 171.761 128 169C128 166.239 125.761 164 123 164Z" fill="#ECEFF1"/>
<path d="M176 164H141C138.239 164 136 166.239 136 169C136 171.761 138.239 174 141 174H176C178.761 174 181 171.761 181 169C181 166.239 178.761 164 176 164Z" fill="#ECEFF1"/>
<path d="M204 164H194C191.239 164 189 166.239 189 169C189 171.761 191.239 174 194 174H204C206.761 174 209 171.761 209 169C209 166.239 206.761 164 204 164Z" fill="#ECEFF1"/>
<path d="M440 159H426C420.477 159 416 163.477 416 169C416 174.523 420.477 179 426 179H440C445.523 179 450 174.523 450 169C450 163.477 445.523 159 440 159Z" fill="#CFD8DC"/>
<path d="M439.873 176C443.668 176 446.745 172.866 446.745 169C446.745 165.134 443.668 162 439.873 162C436.077 162 433 165.134 433 169C433 172.866 436.077 176 439.873 176Z" fill="white"/>
<path d="M74 208C74 205.239 71.7614 203 69 203C66.2386 203 64 205.239 64 208C64 210.761 66.2386 213 69 213C71.7614 213 74 210.761 74 208Z" fill="#03DAC5"/>
<path d="M112 203H95C92.2386 203 90 205.239 90 208C90 210.761 92.2386 213 95 213H112C114.761 213 117 210.761 117 208C117 205.239 114.761 203 112 203Z" fill="#ECEFF1"/>
<path d="M134 203H130C127.239 203 125 205.239 125 208C125 210.761 127.239 213 130 213H134C136.761 213 139 210.761 139 208C139 205.239 136.761 203 134 203Z" fill="#ECEFF1"/>
<path d="M169 203H152C149.239 203 147 205.239 147 208C147 210.761 149.239 213 152 213H169C171.761 213 174 210.761 174 208C174 205.239 171.761 203 169 203Z" fill="#ECEFF1"/>
<path d="M426 198H440C445.523 198 450 202.477 450 208C450 213.523 445.523 218 440 218H426C420.477 218 416 213.523 416 208C416 202.477 420.477 198 426 198Z" fill="#CFD8DC"/>
<path d="M426.127 215C422.332 215 419.255 211.866 419.255 208C419.255 204.134 422.332 201 426.127 201C429.923 201 433 204.134 433 208C433 211.866 429.923 215 426.127 215Z" fill="white"/>
</g>
<defs>
<clipPath id="clip0_753_1218">
<rect width="480" height="230" fill="white"/>
</clipPath>
</defs>
</svg>
