<svg width="480" height="230" viewBox="0 0 480 230" fill="none" xmlns="http://www.w3.org/2000/svg">
<g clip-path="url(#clip0_758_1029)">
<path d="M552 32H48C39.1634 32 32 39.1634 32 48V489C32 497.837 39.1634 505 48 505H552C560.837 505 568 497.837 568 489V48C568 39.1634 560.837 32 552 32Z" fill="white"/>
<path d="M141 64H71C67.134 64 64 67.134 64 71C64 74.866 67.134 78 71 78H141C144.866 78 148 74.866 148 71C148 67.134 144.866 64 141 64Z" fill="#ECEFF1"/>
<path d="M178 64H163C159.134 64 156 67.134 156 71C156 74.866 159.134 78 163 78H178C181.866 78 185 74.866 185 71C185 67.134 181.866 64 178 64Z" fill="#ECEFF1"/>
<path d="M247 64H200C196.134 64 193 67.134 193 71C193 74.866 196.134 78 200 78H247C250.866 78 254 74.866 254 71C254 67.134 250.866 64 247 64Z" fill="#ECEFF1"/>
<path d="M281 64H269C265.134 64 262 67.134 262 71C262 74.866 265.134 78 269 78H281C284.866 78 288 74.866 288 71C288 67.134 284.866 64 281 64Z" fill="#ECEFF1"/>
<path d="M112 134C112 120.745 101.255 110 88 110C74.7452 110 64 120.745 64 134C64 147.255 74.7452 158 88 158C101.255 158 112 147.255 112 134Z" fill="#ECEFF1"/>
<path d="M94 128H92C92 125.79 90.21 124 88 124C85.79 124 84 125.79 84 128H82C80.9 128 80 128.9 80 130V142C80 143.1 80.9 144 82 144H94C95.1 144 96 143.1 96 142V130C96 128.9 95.1 128 94 128ZM86 132C86 132.55 85.55 133 85 133C84.45 133 84 132.55 84 132V130H86V132ZM88 126C89.1 126 90 126.9 90 128H86C86 126.9 86.9 126 88 126ZM92 132C92 132.55 91.55 133 91 133C90.45 133 90 132.55 90 132V130H92V132Z" fill="#EC4899"/>
<path d="M178 121H137C134.239 121 132 123.239 132 126C132 128.761 134.239 131 137 131H178C180.761 131 183 128.761 183 126C183 123.239 180.761 121 178 121Z" fill="#ECEFF1"/>
<path d="M211 121H196C193.239 121 191 123.239 191 126C191 128.761 193.239 131 196 131H211C213.761 131 216 128.761 216 126C216 123.239 213.761 121 211 121Z" fill="#ECEFF1"/>
<path d="M146 139H136C133.791 139 132 140.791 132 143C132 145.209 133.791 147 136 147H146C148.209 147 150 145.209 150 143C150 140.791 148.209 139 146 139Z" fill="#ECEFF1"/>
<path d="M183 139H160C157.791 139 156 140.791 156 143C156 145.209 157.791 147 160 147H183C185.209 147 187 145.209 187 143C187 140.791 185.209 139 183 139Z" fill="#ECEFF1"/>
<path d="M112 212.75C112 199.495 101.255 188.75 88 188.75C74.7452 188.75 64 199.495 64 212.75C64 226.005 74.7452 236.75 88 236.75C101.255 236.75 112 226.005 112 212.75Z" fill="#ECEFF1"/>
<path d="M87.99 202.75C82.47 202.75 78 207.23 78 212.75C78 218.27 82.47 222.75 87.99 222.75C93.52 222.75 98 218.27 98 212.75C98 207.23 93.52 202.75 87.99 202.75ZM94.92 208.75H91.97C91.65 207.5 91.19 206.3 90.59 205.19C92.43 205.82 93.96 207.1 94.92 208.75ZM88 204.79C88.83 205.99 89.48 207.32 89.91 208.75H86.09C86.52 207.32 87.17 205.99 88 204.79ZM80.26 214.75C80.1 214.11 80 213.44 80 212.75C80 212.06 80.1 211.39 80.26 210.75H83.64C83.56 211.41 83.5 212.07 83.5 212.75C83.5 213.43 83.56 214.09 83.64 214.75H80.26ZM81.08 216.75H84.03C84.35 218 84.81 219.2 85.41 220.31C83.57 219.68 82.04 218.41 81.08 216.75ZM84.03 208.75H81.08C82.04 207.09 83.57 205.82 85.41 205.19C84.81 206.3 84.35 207.5 84.03 208.75ZM88 220.71C87.17 219.51 86.52 218.18 86.09 216.75H89.91C89.48 218.18 88.83 219.51 88 220.71ZM90.34 214.75H85.66C85.57 214.09 85.5 213.43 85.5 212.75C85.5 212.07 85.57 211.4 85.66 210.75H90.34C90.43 211.4 90.5 212.07 90.5 212.75C90.5 213.43 90.43 214.09 90.34 214.75ZM90.59 220.31C91.19 219.2 91.65 218 91.97 216.75H94.92C93.96 218.4 92.43 219.68 90.59 220.31ZM92.36 214.75C92.44 214.09 92.5 213.43 92.5 212.75C92.5 212.07 92.44 211.41 92.36 210.75H95.74C95.9 211.39 96 212.06 96 212.75C96 213.44 95.9 214.11 95.74 214.75H92.36Z" fill="#ECEFF1"/>
<path d="M159 199.75H137C134.239 199.75 132 201.989 132 204.75C132 207.511 134.239 209.75 137 209.75H159C161.761 209.75 164 207.511 164 204.75C164 201.989 161.761 199.75 159 199.75Z" fill="#ECEFF1"/>
<path d="M197 199.75H177C174.239 199.75 172 201.989 172 204.75C172 207.511 174.239 209.75 177 209.75H197C199.761 209.75 202 207.511 202 204.75C202 201.989 199.761 199.75 197 199.75Z" fill="#ECEFF1"/>
<path d="M255 199.75H215C212.239 199.75 210 201.989 210 204.75C210 207.511 212.239 209.75 215 209.75H255C257.761 209.75 260 207.511 260 204.75C260 201.989 257.761 199.75 255 199.75Z" fill="#ECEFF1"/>
<path d="M283 199.75H273C270.239 199.75 268 201.989 268 204.75C268 207.511 270.239 209.75 273 209.75H283C285.761 209.75 288 207.511 288 204.75C288 201.989 285.761 199.75 283 199.75Z" fill="#ECEFF1"/>
<path d="M164 217.75H136C133.791 217.75 132 219.541 132 221.75C132 223.959 133.791 225.75 136 225.75H164C166.209 225.75 168 223.959 168 221.75C168 219.541 166.209 217.75 164 217.75Z" fill="#ECEFF1"/>
<path d="M187 217.75H178C175.791 217.75 174 219.541 174 221.75C174 223.959 175.791 225.75 178 225.75H187C189.209 225.75 191 223.959 191 221.75C191 219.541 189.209 217.75 187 217.75Z" fill="#ECEFF1"/>
</g>
<defs>
<clipPath id="clip0_758_1029">
<rect width="480" height="230" fill="white"/>
</clipPath>
</defs>
</svg>
