<svg width="480" height="230" viewBox="0 0 480 230" fill="none" xmlns="http://www.w3.org/2000/svg">
<g clip-path="url(#clip0_753_1338)">
<path d="M552 32H48C39.1634 32 32 39.1634 32 48V274C32 282.837 39.1634 290 48 290H552C560.837 290 568 282.837 568 274V48C568 39.1634 560.837 32 552 32Z" fill="white"/>
<path d="M68.6953 257.695V110.305" stroke="#ECEFF1" stroke-width="0.61" stroke-linecap="round"/>
<path d="M93.6172 257.695V110.305" stroke="#ECEFF1" stroke-width="0.61" stroke-linecap="round"/>
<path d="M118.539 257.695V110.305" stroke="#ECEFF1" stroke-width="0.61" stroke-linecap="round"/>
<path d="M143.465 257.695V110.305" stroke="#ECEFF1" stroke-width="0.61" stroke-linecap="round"/>
<path d="M168.387 257.695V110.305" stroke="#ECEFF1" stroke-width="0.61" stroke-linecap="round"/>
<path d="M193.309 257.695V110.305" stroke="#ECEFF1" stroke-width="0.61" stroke-linecap="round"/>
<path d="M218.234 257.695V110.305" stroke="#ECEFF1" stroke-width="0.61" stroke-linecap="round"/>
<path d="M243.156 257.695V110.305" stroke="#ECEFF1" stroke-width="0.61" stroke-linecap="round"/>
<path d="M268.078 257.695V110.305" stroke="#ECEFF1" stroke-width="0.61" stroke-linecap="round"/>
<path d="M293.004 257.695V110.305" stroke="#ECEFF1" stroke-width="0.61" stroke-linecap="round"/>
<path d="M317.926 257.695V110.305" stroke="#ECEFF1" stroke-width="0.61" stroke-linecap="round"/>
<path d="M342.848 257.695V110.305" stroke="#ECEFF1" stroke-width="0.61" stroke-linecap="round"/>
<path d="M367.773 257.695V110.305" stroke="#ECEFF1" stroke-width="0.61" stroke-linecap="round"/>
<path d="M392.695 257.695V110.305" stroke="#ECEFF1" stroke-width="0.61" stroke-linecap="round"/>
<path d="M91 64H71C67.134 64 64 67.134 64 71C64 74.866 67.134 78 71 78H91C94.866 78 98 74.866 98 71C98 67.134 94.866 64 91 64Z" fill="#ECEFF1"/>
<path d="M167 64H113C109.134 64 106 67.134 106 71C106 74.866 109.134 78 113 78H167C170.866 78 174 74.866 174 71C174 67.134 170.866 64 167 64Z" fill="#ECEFF1"/>
<path d="M98.9219 233C98.9219 230.239 96.6833 228 93.9219 228C91.1605 228 88.9219 230.239 88.9219 233V241C88.9219 243.761 91.1605 246 93.9219 246C96.6833 246 98.9219 243.761 98.9219 241V233Z" fill="#ECEFF1"/>
<path d="M123.848 198C123.848 195.239 121.609 193 118.848 193C116.086 193 113.848 195.239 113.848 198V219C113.848 221.761 116.086 224 118.848 224C121.609 224 123.848 221.761 123.848 219V198Z" fill="#ECEFF1"/>
<path d="M148.77 219C148.77 216.239 146.531 214 143.77 214C141.008 214 138.77 216.239 138.77 219V227C138.77 229.761 141.008 232 143.77 232C146.531 232 148.77 229.761 148.77 227V219Z" fill="#ECEFF1"/>
<path d="M173.691 211C173.691 208.239 171.453 206 168.691 206C165.93 206 163.691 208.239 163.691 211V239C163.691 241.761 165.93 244 168.691 244C171.453 244 173.691 241.761 173.691 239V211Z" fill="#ECEFF1"/>
<path d="M198.23 225C198.23 222.239 195.992 220 193.23 220C190.469 220 188.23 222.239 188.23 225V235C188.23 237.761 190.469 240 193.23 240C195.992 240 198.23 237.761 198.23 235V225Z" fill="#ECEFF1"/>
<path d="M223.074 221C223.074 218.239 220.836 216 218.074 216C215.313 216 213.074 218.239 213.074 221V247C213.074 249.761 215.313 252 218.074 252C220.836 252 223.074 249.761 223.074 247V221Z" fill="#ECEFF1"/>
<path d="M248.926 149C248.926 146.239 246.687 144 243.926 144C241.164 144 238.926 146.239 238.926 149V227C238.926 229.761 241.164 232 243.926 232C246.687 232 248.926 229.761 248.926 227V149Z" fill="#EC4899"/>
<path d="M273.77 177C273.77 174.239 271.531 172 268.77 172C266.008 172 263.77 174.239 263.77 177V190C263.77 192.761 266.008 195 268.77 195C271.531 195 273.77 192.761 273.77 190V177Z" fill="#EC4899"/>
<path d="M298.613 150C298.613 147.239 296.375 145 293.613 145C290.852 145 288.613 147.239 288.613 150V169C288.613 171.761 290.852 174 293.613 174C296.375 174 298.613 171.761 298.613 169V150Z" fill="#EC4899"/>
<path d="M323.461 162C323.461 159.239 321.222 157 318.461 157C315.7 157 313.461 159.239 313.461 162V200C313.461 202.761 315.7 205 318.461 205C321.222 205 323.461 202.761 323.461 200V162Z" fill="#ECEFF1"/>
<path d="M348.152 118C348.152 115.239 345.914 113 343.152 113C340.391 113 338.152 115.239 338.152 118V165C338.152 167.761 340.391 170 343.152 170C345.914 170 348.152 167.761 348.152 165V118Z" fill="#ECEFF1"/>
<path d="M373.078 143C373.078 140.239 370.84 138 368.078 138C365.317 138 363.078 140.239 363.078 143V149C363.078 151.761 365.317 154 368.078 154C370.84 154 373.078 151.761 373.078 149V143Z" fill="#ECEFF1"/>
<path d="M398 115C398 112.239 395.761 110 393 110C390.239 110 388 112.239 388 115V136C388 138.761 390.239 141 393 141C395.761 141 398 138.761 398 136V115Z" fill="#ECEFF1"/>
<path d="M454 114C454 111.791 452.209 110 450 110C447.791 110 446 111.791 446 114C446 116.209 447.791 118 450 118C452.209 118 454 116.209 454 114Z" fill="#ECEFF1"/>
<path d="M492 110H468C465.791 110 464 111.791 464 114C464 116.209 465.791 118 468 118H492C494.209 118 496 116.209 496 114C496 111.791 494.209 110 492 110Z" fill="#ECEFF1"/>
<path d="M454 142C454 139.791 452.209 138 450 138C447.791 138 446 139.791 446 142C446 144.209 447.791 146 450 146C452.209 146 454 144.209 454 142Z" fill="#ECEFF1"/>
<path d="M484 138H468C465.791 138 464 139.791 464 142C464 144.209 465.791 146 468 146H484C486.209 146 488 144.209 488 142C488 139.791 486.209 138 484 138Z" fill="#ECEFF1"/>
<path d="M454 170C454 167.791 452.209 166 450 166C447.791 166 446 167.791 446 170C446 172.209 447.791 174 450 174C452.209 174 454 172.209 454 170Z" fill="#ECEFF1"/>
<path d="M480 166H468C465.791 166 464 167.791 464 170C464 172.209 465.791 174 468 174H480C482.209 174 484 172.209 484 170C484 167.791 482.209 166 480 166Z" fill="#ECEFF1"/>
<path d="M454 198C454 195.791 452.209 194 450 194C447.791 194 446 195.791 446 198C446 200.209 447.791 202 450 202C452.209 202 454 200.209 454 198Z" fill="#ECEFF1"/>
<path d="M485 194H468C465.791 194 464 195.791 464 198C464 200.209 465.791 202 468 202H485C487.209 202 489 200.209 489 198C489 195.791 487.209 194 485 194Z" fill="#ECEFF1"/>
<path d="M454 226C454 223.791 452.209 222 450 222C447.791 222 446 223.791 446 226C446 228.209 447.791 230 450 230C452.209 230 454 228.209 454 226Z" fill="#ECEFF1"/>
<path d="M474 222H468C465.791 222 464 223.791 464 226C464 228.209 465.791 230 468 230H474C476.209 230 478 228.209 478 226C478 223.791 476.209 222 474 222Z" fill="#ECEFF1"/>
</g>
<defs>
<clipPath id="clip0_753_1338">
<rect width="480" height="230" fill="white"/>
</clipPath>
</defs>
</svg>
