<svg width="480" height="600" viewBox="0 0 480 600" fill="none" xmlns="http://www.w3.org/2000/svg">
<g clip-path="url(#clip0_753_699)">
<g filter="url(#filter0_dd_753_699)">
<path d="M260 24H40C31.1634 24 24 31.1634 24 40V143C24 151.837 31.1634 159 40 159H260C268.837 159 276 151.837 276 143V40C276 31.1634 268.837 24 260 24Z" fill="white"/>
<path d="M68.1228 117.773H59.8828V132.566H68.1228V117.773Z" fill="#FF5F00"/>
<path d="M60.4007 125.169C60.3997 123.745 60.7227 122.338 61.3457 121.057C61.9687 119.776 62.8757 118.653 63.9977 117.773C62.6087 116.682 60.9397 116.004 59.1827 115.815C57.4267 115.627 55.6517 115.936 54.0627 116.708C52.4737 117.479 51.1337 118.682 50.1957 120.178C49.2587 121.674 48.7617 123.404 48.7617 125.169C48.7617 126.934 49.2587 128.664 50.1957 130.16C51.1337 131.657 52.4737 132.859 54.0627 133.631C55.6517 134.402 57.4267 134.711 59.1827 134.523C60.9397 134.335 62.6087 133.656 63.9977 132.565C62.8757 131.686 61.9687 130.563 61.3457 129.281C60.7227 128 60.3997 126.594 60.4007 125.169Z" fill="#EB001B"/>
<path d="M79.236 125.169C79.236 126.934 78.739 128.664 77.801 130.16C76.864 131.657 75.524 132.859 73.935 133.631C72.346 134.402 70.571 134.711 68.814 134.523C67.057 134.335 65.389 133.656 64 132.565C65.121 131.685 66.027 130.562 66.65 129.281C67.273 127.999 67.597 126.594 67.597 125.169C67.597 123.745 67.273 122.339 66.65 121.058C66.027 119.777 65.121 118.653 64 117.773C65.389 116.682 67.057 116.004 68.814 115.815C70.571 115.627 72.346 115.936 73.935 116.708C75.524 117.479 76.864 118.682 77.801 120.178C78.739 121.674 79.236 123.404 79.236 125.169Z" fill="#F79E1B"/>
<path d="M78.3335 130.998V130.695H78.4555V130.633H78.1445V130.695H78.2665V130.998H78.3335ZM78.9375 130.998V130.633H78.8425L78.7325 130.884L78.6225 130.633H78.5275V130.998H78.5945V130.723L78.6975 130.96H78.7675L78.8705 130.722V130.998H78.9375Z" fill="#F79E1B"/>
<path d="M182 125C182 123.619 180.881 122.5 179.5 122.5C178.119 122.5 177 123.619 177 125C177 126.381 178.119 127.5 179.5 127.5C180.881 127.5 182 126.381 182 125Z" fill="#CBD5E1"/>
<path d="M191 125C191 123.619 189.881 122.5 188.5 122.5C187.119 122.5 186 123.619 186 125C186 126.381 187.119 127.5 188.5 127.5C189.881 127.5 191 126.381 191 125Z" fill="#CBD5E1"/>
<path d="M200 125C200 123.619 198.881 122.5 197.5 122.5C196.119 122.5 195 123.619 195 125C195 126.381 196.119 127.5 197.5 127.5C198.881 127.5 200 126.381 200 125Z" fill="#CBD5E1"/>
<path d="M209 125C209 123.619 207.881 122.5 206.5 122.5C205.119 122.5 204 123.619 204 125C204 126.381 205.119 127.5 206.5 127.5C207.881 127.5 209 126.381 209 125Z" fill="#CBD5E1"/>
<path d="M248 121H219C216.791 121 215 122.791 215 125C215 127.209 216.791 129 219 129H248C250.209 129 252 127.209 252 125C252 122.791 250.209 121 248 121Z" fill="#CBD5E1"/>
<path d="M98 48H52C49.7909 48 48 49.7909 48 52C48 54.2091 49.7909 56 52 56H98C100.209 56 102 54.2091 102 52C102 49.7909 100.209 48 98 48Z" fill="#CBD5E1"/>
<path d="M161.889 73H57.1111C52.0792 73 48 77.2533 48 82.5C48 87.7467 52.0792 92 57.1111 92H161.889C166.921 92 171 87.7467 171 82.5C171 77.2533 166.921 73 161.889 73Z" fill="#E2E8F0"/>
<path d="M260 25.25H40C31.8538 25.25 25.25 31.8538 25.25 40V143C25.25 151.146 31.8538 157.75 40 157.75H260C268.146 157.75 274.75 151.146 274.75 143V40C274.75 31.8538 268.146 25.25 260 25.25Z" stroke="#EC4899" stroke-width="2.5"/>
</g>
<path d="M544 191H40C31.1634 191 24 198.163 24 207V433C24 441.837 31.1634 449 40 449H544C552.837 449 560 441.837 560 433V207C560 198.163 552.837 191 544 191Z" fill="white"/>
<path d="M60.6953 416.695V269.305" stroke="#CBD5E1" stroke-width="0.61" stroke-linecap="round"/>
<path d="M85.6172 416.695V269.305" stroke="#CBD5E1" stroke-width="0.61" stroke-linecap="round"/>
<path d="M110.539 416.695V269.305" stroke="#CBD5E1" stroke-width="0.61" stroke-linecap="round"/>
<path d="M135.465 416.695V269.305" stroke="#CBD5E1" stroke-width="0.61" stroke-linecap="round"/>
<path d="M160.387 416.695V269.305" stroke="#CBD5E1" stroke-width="0.61" stroke-linecap="round"/>
<path d="M185.309 416.695V269.305" stroke="#CBD5E1" stroke-width="0.61" stroke-linecap="round"/>
<path d="M210.234 416.695V269.305" stroke="#CBD5E1" stroke-width="0.61" stroke-linecap="round"/>
<path d="M235.156 416.695V269.305" stroke="#CBD5E1" stroke-width="0.61" stroke-linecap="round"/>
<path d="M260.078 416.695V269.305" stroke="#CBD5E1" stroke-width="0.61" stroke-linecap="round"/>
<path d="M285.004 416.695V269.305" stroke="#CBD5E1" stroke-width="0.61" stroke-linecap="round"/>
<path d="M309.926 416.695V269.305" stroke="#CBD5E1" stroke-width="0.61" stroke-linecap="round"/>
<path d="M334.848 416.695V269.305" stroke="#CBD5E1" stroke-width="0.61" stroke-linecap="round"/>
<path d="M359.773 416.695V269.305" stroke="#CBD5E1" stroke-width="0.61" stroke-linecap="round"/>
<path d="M384.695 416.695V269.305" stroke="#CBD5E1" stroke-width="0.61" stroke-linecap="round"/>
<path d="M83 223H63C59.134 223 56 226.134 56 230C56 233.866 59.134 237 63 237H83C86.866 237 90 233.866 90 230C90 226.134 86.866 223 83 223Z" fill="#CBD5E1"/>
<path d="M159 223H105C101.134 223 98 226.134 98 230C98 233.866 101.134 237 105 237H159C162.866 237 166 233.866 166 230C166 226.134 162.866 223 159 223Z" fill="#CBD5E1"/>
<path d="M66 400C66 397.239 63.7614 395 61 395C58.2386 395 56 397.239 56 400V412C56 414.761 58.2386 417 61 417C63.7614 417 66 414.761 66 412V400Z" fill="#94A3B8"/>
<path d="M90.9219 392C90.9219 389.239 88.6833 387 85.9219 387C83.1605 387 80.9219 389.239 80.9219 392V400C80.9219 402.761 83.1605 405 85.9219 405C88.6833 405 90.9219 402.761 90.9219 400V392Z" fill="#94A3B8"/>
<path d="M115.848 357C115.848 354.239 113.609 352 110.848 352C108.086 352 105.848 354.239 105.848 357V378C105.848 380.761 108.086 383 110.848 383C113.609 383 115.848 380.761 115.848 378V357Z" fill="#94A3B8"/>
<path d="M140.77 378C140.77 375.239 138.531 373 135.77 373C133.008 373 130.77 375.239 130.77 378V386C130.77 388.761 133.008 391 135.77 391C138.531 391 140.77 388.761 140.77 386V378Z" fill="#94A3B8"/>
<path d="M165.691 370C165.691 367.239 163.453 365 160.691 365C157.93 365 155.691 367.239 155.691 370V398C155.691 400.761 157.93 403 160.691 403C163.453 403 165.691 400.761 165.691 398V370Z" fill="#94A3B8"/>
<path d="M190.23 384C190.23 381.239 187.992 379 185.23 379C182.469 379 180.23 381.239 180.23 384V394C180.23 396.761 182.469 399 185.23 399C187.992 399 190.23 396.761 190.23 394V384Z" fill="#94A3B8"/>
<path d="M215.074 380C215.074 377.239 212.836 375 210.074 375C207.313 375 205.074 377.239 205.074 380V406C205.074 408.761 207.313 411 210.074 411C212.836 411 215.074 408.761 215.074 406V380Z" fill="#94A3B8"/>
<path d="M240.926 308C240.926 305.239 238.687 303 235.926 303C233.164 303 230.926 305.239 230.926 308V386C230.926 388.761 233.164 391 235.926 391C238.687 391 240.926 388.761 240.926 386V308Z" fill="#94A3B8"/>
<path d="M265.77 336C265.77 333.239 263.531 331 260.77 331C258.008 331 255.77 333.239 255.77 336V349C255.77 351.761 258.008 354 260.77 354C263.531 354 265.77 351.761 265.77 349V336Z" fill="#94A3B8"/>
<path d="M290.613 309C290.613 306.239 288.375 304 285.613 304C282.852 304 280.613 306.239 280.613 309V328C280.613 330.761 282.852 333 285.613 333C288.375 333 290.613 330.761 290.613 328V309Z" fill="#94A3B8"/>
<path d="M315.461 321C315.461 318.239 313.222 316 310.461 316C307.7 316 305.461 318.239 305.461 321V359C305.461 361.761 307.7 364 310.461 364C313.222 364 315.461 361.761 315.461 359V321Z" fill="#94A3B8"/>
<path d="M340.152 277C340.152 274.239 337.914 272 335.152 272C332.391 272 330.152 274.239 330.152 277V324C330.152 326.761 332.391 329 335.152 329C337.914 329 340.152 326.761 340.152 324V277Z" fill="#94A3B8"/>
<path d="M365.078 302C365.078 299.239 362.84 297 360.078 297C357.317 297 355.078 299.239 355.078 302V308C355.078 310.761 357.317 313 360.078 313C362.84 313 365.078 310.761 365.078 308V302Z" fill="#94A3B8"/>
<path d="M390 274C390 271.239 387.761 269 385 269C382.239 269 380 271.239 380 274V295C380 297.761 382.239 300 385 300C387.761 300 390 297.761 390 295V274Z" fill="#94A3B8"/>
<path d="M446 273C446 270.791 444.209 269 442 269C439.791 269 438 270.791 438 273C438 275.209 439.791 277 442 277C444.209 277 446 275.209 446 273Z" fill="#CBD5E1"/>
<path d="M484 269H460C457.791 269 456 270.791 456 273C456 275.209 457.791 277 460 277H484C486.209 277 488 275.209 488 273C488 270.791 486.209 269 484 269Z" fill="#CBD5E1"/>
<path d="M446 301C446 298.791 444.209 297 442 297C439.791 297 438 298.791 438 301C438 303.209 439.791 305 442 305C444.209 305 446 303.209 446 301Z" fill="#94A3B8"/>
<path d="M476 297H460C457.791 297 456 298.791 456 301C456 303.209 457.791 305 460 305H476C478.209 305 480 303.209 480 301C480 298.791 478.209 297 476 297Z" fill="#CBD5E1"/>
<path d="M446 329C446 326.791 444.209 325 442 325C439.791 325 438 326.791 438 329C438 331.209 439.791 333 442 333C444.209 333 446 331.209 446 329Z" fill="#CBD5E1"/>
<path d="M472 325H460C457.791 325 456 326.791 456 329C456 331.209 457.791 333 460 333H472C474.209 333 476 331.209 476 329C476 326.791 474.209 325 472 325Z" fill="#CBD5E1"/>
<path d="M446 357C446 354.791 444.209 353 442 353C439.791 353 438 354.791 438 357C438 359.209 439.791 361 442 361C444.209 361 446 359.209 446 357Z" fill="#94A3B8"/>
<path d="M477 353H460C457.791 353 456 354.791 456 357C456 359.209 457.791 361 460 361H477C479.209 361 481 359.209 481 357C481 354.791 479.209 353 477 353Z" fill="#CBD5E1"/>
<path d="M446 385C446 382.791 444.209 381 442 381C439.791 381 438 382.791 438 385C438 387.209 439.791 389 442 389C444.209 389 446 387.209 446 385Z" fill="#CBD5E1"/>
<path d="M466 381H460C457.791 381 456 382.791 456 385C456 387.209 457.791 389 460 389H466C468.209 389 470 387.209 470 385C470 382.791 468.209 381 466 381Z" fill="#CBD5E1"/>
<path d="M510 381H480C477.791 381 476 382.791 476 385C476 387.209 477.791 389 480 389H510C512.209 389 514 387.209 514 385C514 382.791 512.209 381 510 381Z" fill="#CBD5E1"/>
<path d="M446 413C446 410.791 444.209 409 442 409C439.791 409 438 410.791 438 413C438 415.209 439.791 417 442 417C444.209 417 446 415.209 446 413Z" fill="#CBD5E1"/>
<path d="M481 409H460C457.791 409 456 410.791 456 413C456 415.209 457.791 417 460 417H481C483.209 417 485 415.209 485 413C485 410.791 483.209 409 481 409Z" fill="#CBD5E1"/>
<path d="M259 481H40C31.1634 481 24 488.163 24 497V648C24 656.837 31.1634 664 40 664H259C267.837 664 275 656.837 275 648V497C275 488.163 267.837 481 259 481Z" fill="white"/>
<path opacity="0.3" d="M58.597 626.412L56 632H243V576.699L240.403 577.226C237.806 577.754 232.611 578.809 227.417 583.561C222.222 588.312 217.028 596.761 211.833 600.167C206.639 603.573 201.444 601.937 196.25 591.658C191.056 581.38 185.861 562.459 180.667 559.453C175.472 556.447 170.278 569.356 165.083 570.268C159.889 571.179 154.694 560.092 149.5 563.463C144.306 566.834 139.111 584.662 133.917 589.633C128.722 594.603 123.528 586.717 118.333 589.427C113.139 592.136 107.944 605.442 102.75 611.309C97.556 617.177 92.361 615.606 87.167 612.226C81.972 608.847 76.778 603.659 71.583 606.653C66.389 609.648 61.194 620.824 58.597 626.412Z" fill="#E2E8F0"/>
<path d="M56 632L58.597 626.412C61.194 620.824 66.389 609.648 71.583 606.653C76.778 603.659 81.972 608.847 87.167 612.226C92.361 615.606 97.556 617.177 102.75 611.309C107.944 605.442 113.139 592.136 118.333 589.427C123.528 586.717 128.722 594.603 133.917 589.633C139.111 584.662 144.306 566.834 149.5 563.463C154.694 560.092 159.889 571.179 165.083 570.268C170.278 569.356 175.472 556.447 180.667 559.453C185.861 562.459 191.056 581.38 196.25 591.658C201.444 601.937 206.639 603.573 211.833 600.167C217.028 596.761 222.222 588.312 227.417 583.561C232.611 578.809 237.806 577.754 240.403 577.226L243 576.699" stroke="#E2E8F0" stroke-width="2" stroke-linecap="round"/>
<path d="M107 513H63C59.134 513 56 516.134 56 520C56 523.866 59.134 527 63 527H107C110.866 527 114 523.866 114 520C114 516.134 110.866 513 107 513Z" fill="#CBD5E1"/>
<path d="M143 513H129C125.134 513 122 516.134 122 520C122 523.866 125.134 527 129 527H143C146.866 527 150 523.866 150 520C150 516.134 146.866 513 143 513Z" fill="#CBD5E1"/>
<path d="M544 481H325C316.163 481 309 488.163 309 497V648C309 656.837 316.163 664 325 664H544C552.837 664 560 656.837 560 648V497C560 488.163 552.837 481 544 481Z" fill="white"/>
<path d="M375 513H348C344.134 513 341 516.134 341 520C341 523.866 344.134 527 348 527H375C378.866 527 382 523.866 382 520C382 516.134 378.866 513 375 513Z" fill="#CBD5E1"/>
<path d="M445 513H397C393.134 513 390 516.134 390 520C390 523.866 393.134 527 397 527H445C448.866 527 452 523.866 452 520C452 516.134 448.866 513 445 513Z" fill="#CBD5E1"/>
<path d="M387.706 565.699C392.661 567.396 397.114 570.301 400.663 574.152C404.212 578.003 406.745 582.678 408.033 587.754C409.321 592.83 409.322 598.147 408.038 603.224C406.754 608.301 404.225 612.978 400.678 616.831C397.132 620.684 392.681 623.593 387.728 625.293C382.775 626.994 377.476 627.432 372.311 626.57C367.145 625.707 362.277 623.57 358.145 620.352C354.013 617.135 350.749 612.937 348.648 608.141" stroke="#94A3B8" stroke-width="10" stroke-linecap="round"/>
<path d="M346.379 590.623C347.305 584.709 349.898 579.182 353.853 574.688C357.807 570.194 362.961 566.921 368.709 565.25" stroke="#CBD5E1" stroke-width="10" stroke-linecap="round"/>
<path d="M466 578C466 574.686 463.314 572 460 572C456.686 572 454 574.686 454 578C454 581.314 456.686 584 460 584C463.314 584 466 581.314 466 578Z" fill="#CBD5E1"/>
<path d="M498 574H482C479.791 574 478 575.791 478 578C478 580.209 479.791 582 482 582H498C500.209 582 502 580.209 502 578C502 575.791 500.209 574 498 574Z" fill="#CBD5E1"/>
<path d="M544 24H324C315.163 24 308 31.1634 308 40V143C308 151.837 315.163 159 324 159H544C552.837 159 560 151.837 560 143V40C560 31.1634 552.837 24 544 24Z" fill="white"/>
<path fill-rule="evenodd" clip-rule="evenodd" d="M366.666 119.651C365.903 119.339 364.703 119 363.207 119C359.39 119 356.704 121.104 356.681 124.116C356.657 126.343 358.598 127.586 360.062 128.327C361.566 129.086 362.072 129.571 362.066 130.25C362.056 131.288 360.865 131.764 359.755 131.764C358.21 131.764 357.388 131.53 356.119 130.951L355.622 130.704L355.082 134.174C355.983 134.606 357.651 134.98 359.383 135C363.44 135 366.075 132.922 366.106 129.706C366.12 127.939 365.092 126.6 362.864 125.494C361.515 124.775 360.687 124.299 360.696 123.572C360.697 122.927 361.396 122.238 362.908 122.238C364.17 122.217 365.085 122.518 365.797 122.833L366.144 123.011L366.666 119.651ZM348.803 134.77L351.218 119.27H355.079L352.664 134.77H348.803ZM373.345 124.942C373.345 124.942 372.127 128.383 371.807 129.274H375.012C374.859 128.499 374.119 124.799 374.119 124.799L373.858 123.463C373.755 123.77 373.611 124.177 373.502 124.486V124.487C373.404 124.763 373.334 124.961 373.345 124.942ZM376.57 119.286H373.587C372.661 119.286 371.969 119.56 371.563 120.571L365.83 134.776H369.885C369.885 134.776 370.546 132.865 370.697 132.445C370.904 132.445 371.885 132.447 372.924 132.449C374.096 132.451 375.343 132.453 375.641 132.453C375.757 132.994 376.111 134.776 376.111 134.776H379.695L376.57 119.286ZM345.563 119.284L341.785 129.851L341.38 127.703C341.379 127.699 341.378 127.695 341.376 127.691C341.378 127.694 341.379 127.697 341.38 127.7L340.027 120.578C339.794 119.596 339.115 119.305 338.277 119.271H332.051L332 119.592C333.514 119.993 334.868 120.572 336.055 121.292L339.489 134.757L343.575 134.755L349.654 119.284H345.563Z" fill="#CBD5E1"/>
<path d="M466 127C466 125.619 464.881 124.5 463.5 124.5C462.119 124.5 461 125.619 461 127C461 128.381 462.119 129.5 463.5 129.5C464.881 129.5 466 128.381 466 127Z" fill="#ECEFF1"/>
<path d="M475 127C475 125.619 473.881 124.5 472.5 124.5C471.119 124.5 470 125.619 470 127C470 128.381 471.119 129.5 472.5 129.5C473.881 129.5 475 128.381 475 127Z" fill="#ECEFF1"/>
<path d="M484 127C484 125.619 482.881 124.5 481.5 124.5C480.119 124.5 479 125.619 479 127C479 128.381 480.119 129.5 481.5 129.5C482.881 129.5 484 128.381 484 127Z" fill="#ECEFF1"/>
<path d="M344 48H336C333.791 48 332 49.7909 332 52C332 54.2091 333.791 56 336 56H344C346.209 56 348 54.2091 348 52C348 49.7909 346.209 48 344 48Z" fill="#ECEFF1"/>
<path d="M394 48H358C355.791 48 354 49.7909 354 52C354 54.2091 355.791 56 358 56H394C396.209 56 398 54.2091 398 52C398 49.7909 396.209 48 394 48Z" fill="#ECEFF1"/>
</g>
<defs>
<filter id="filter0_dd_753_699" x="-8" y="2" width="316" height="199" filterUnits="userSpaceOnUse" color-interpolation-filters="sRGB">
<feFlood flood-opacity="0" result="BackgroundImageFix"/>
<feColorMatrix in="SourceAlpha" type="matrix" values="0 0 0 0 0 0 0 0 0 0 0 0 0 0 0 0 0 0 127 0" result="hardAlpha"/>
<feOffset dy="10"/>
<feGaussianBlur stdDeviation="16"/>
<feColorMatrix type="matrix" values="0 0 0 0 0.0941176 0 0 0 0 0.152941 0 0 0 0 0.294118 0 0 0 0.06 0"/>
<feBlend mode="normal" in2="BackgroundImageFix" result="effect1_dropShadow_753_699"/>
<feColorMatrix in="SourceAlpha" type="matrix" values="0 0 0 0 0 0 0 0 0 0 0 0 0 0 0 0 0 0 127 0" result="hardAlpha"/>
<feOffset dy="6"/>
<feGaussianBlur stdDeviation="7"/>
<feColorMatrix type="matrix" values="0 0 0 0 0.0941176 0 0 0 0 0.152941 0 0 0 0 0.294118 0 0 0 0.08 0"/>
<feBlend mode="normal" in2="effect1_dropShadow_753_699" result="effect2_dropShadow_753_699"/>
<feBlend mode="normal" in="SourceGraphic" in2="effect2_dropShadow_753_699" result="shape"/>
</filter>
<clipPath id="clip0_753_699">
<rect width="480" height="600" fill="white"/>
</clipPath>
</defs>
</svg>
