<svg width="144" height="48" viewBox="0 0 144 48" fill="none" xmlns="http://www.w3.org/2000/svg">
<path d="M62.4571 24.6382L60.7679 20.0848C60.6989 19.8986 60.4355 19.8986 60.3665 20.0848L58.6775 24.6384C58.6656 24.6708 58.6616 24.7056 58.6659 24.7398C58.6703 24.7741 58.6829 24.8068 58.7026 24.8351C58.7223 24.8634 58.7486 24.8866 58.7792 24.9025C58.8098 24.9185 58.8438 24.9269 58.8783 24.9269H62.2563C62.2908 24.9268 62.3248 24.9185 62.3554 24.9025C62.386 24.8865 62.4123 24.8633 62.432 24.835C62.4517 24.8067 62.4643 24.774 62.4686 24.7397C62.4729 24.7055 62.4691 24.6705 62.4571 24.6382ZM63.2374 27.1975H57.8974C57.8537 27.1976 57.8111 27.2109 57.7752 27.2359C57.7393 27.2608 57.7119 27.2962 57.6967 27.3371L56.6454 30.1703C56.6302 30.2113 56.6029 30.2466 56.567 30.2716C56.5311 30.2965 56.4885 30.3099 56.4448 30.3099H54.1303C54.0953 30.3099 54.0608 30.3013 54.0299 30.2849C53.999 30.2685 53.9726 30.2448 53.953 30.2158C53.9334 30.1868 53.9212 30.1535 53.9175 30.1187C53.9138 30.0839 53.9186 30.0487 53.9316 30.0162L59.2603 16.7417C59.2763 16.702 59.3038 16.6681 59.3392 16.6442C59.3746 16.6202 59.4164 16.6075 59.4591 16.6075H61.6753C61.7627 16.6075 61.8413 16.6606 61.874 16.7417L67.2025 30.0161C67.2156 30.0486 67.2205 30.0838 67.2168 30.1186C67.2131 30.1534 67.2009 30.1868 67.1813 30.2158C67.1617 30.2449 67.1353 30.2686 67.1043 30.285C67.0734 30.3015 67.0389 30.3101 67.0039 30.31H64.6898C64.6461 30.31 64.6034 30.2966 64.5676 30.2717C64.5317 30.2467 64.5043 30.2113 64.4892 30.1703L63.4377 27.3371C63.4225 27.2962 63.3951 27.2608 63.3593 27.2359C63.3234 27.2109 63.2811 27.1976 63.2374 27.1975ZM68.2869 21.2662H70.2665C70.3233 21.2662 70.3777 21.2888 70.4179 21.3289C70.458 21.3691 70.4806 21.4235 70.4806 21.4803V30.0958C70.4806 30.1526 70.458 30.2071 70.4179 30.2472C70.3777 30.2874 70.3233 30.3099 70.2665 30.3099H68.2869C68.2302 30.3099 68.1757 30.2874 68.1356 30.2472C68.0954 30.2071 68.0729 30.1526 68.0729 30.0958V21.4801C68.0729 21.4234 68.0954 21.3689 68.1356 21.3288C68.1757 21.2886 68.2302 21.2662 68.2869 21.2662ZM77.7003 23.362C77.7003 23.4187 77.6777 23.4732 77.6376 23.5133C77.5974 23.5535 77.543 23.576 77.4862 23.576H77.4263C76.4475 23.576 75.7295 23.8109 75.2729 24.2807C74.8159 24.7505 74.5879 25.5271 74.5879 26.6102V30.0958C74.5879 30.1526 74.5653 30.2071 74.5252 30.2472C74.4851 30.2874 74.4306 30.3099 74.3738 30.3099H72.4137C72.3569 30.3099 72.3024 30.2874 72.2623 30.2472C72.2221 30.2071 72.1996 30.1526 72.1996 30.0958V21.4801C72.1996 21.4234 72.2221 21.3689 72.2623 21.3288C72.3024 21.2886 72.3569 21.2661 72.4137 21.2661H74.3541C74.4109 21.2661 74.4654 21.2886 74.5055 21.3288C74.5456 21.3689 74.5682 21.4234 74.5682 21.4801V23.1843H74.6074C74.8423 22.4796 75.2142 21.9384 75.7234 21.5596C76.2321 21.1813 76.8586 20.9919 77.6024 20.9919H77.7003V23.362ZM83.113 23.2823C83.0562 23.2823 83.0018 23.3049 82.9617 23.345C82.9215 23.3852 82.899 23.4396 82.899 23.4964V27.08C82.899 27.4454 82.9703 27.7064 83.1142 27.863C83.2576 28.0195 83.5056 28.0979 83.8579 28.0979H84.055C84.1118 28.0979 84.1662 28.1204 84.2064 28.1606C84.2465 28.2007 84.2691 28.2551 84.2691 28.3119V30.1153C84.2691 30.172 84.2465 30.2265 84.2064 30.2666C84.1662 30.3068 84.1118 30.3293 84.055 30.3293H83.2119C82.3376 30.3293 81.6656 30.1043 81.1958 29.654C80.7259 29.2038 80.491 28.5352 80.491 27.6476V23.4964C80.491 23.4396 80.4684 23.3852 80.4283 23.345C80.3881 23.3049 80.3337 23.2823 80.2769 23.2823H79.0412C78.9845 23.2823 78.93 23.2598 78.8899 23.2196C78.8497 23.1795 78.8272 23.1251 78.8272 23.0683V21.4801C78.8272 21.4234 78.8497 21.3689 78.8899 21.3288C78.93 21.2886 78.9845 21.2661 79.0412 21.2661H80.2771C80.3338 21.2661 80.3883 21.2435 80.4284 21.2034C80.4686 21.1632 80.4911 21.1088 80.4911 21.052V17.8588C80.4911 17.802 80.5137 17.7475 80.5538 17.7074C80.594 17.6673 80.6484 17.6447 80.7052 17.6447H82.6848C82.7415 17.6447 82.796 17.6673 82.8361 17.7074C82.8763 17.7475 82.8988 17.802 82.8988 17.8588V21.052C82.8988 21.1088 82.9214 21.1632 82.9615 21.2034C83.0017 21.2435 83.0561 21.2661 83.1129 21.2661H84.5443C84.6011 21.2661 84.6556 21.2886 84.6957 21.3288C84.7358 21.3689 84.7584 21.4234 84.7584 21.4801V23.0684C84.7584 23.1252 84.7358 23.1796 84.6957 23.2198C84.6556 23.2599 84.6011 23.2825 84.5443 23.2825L83.113 23.2823ZM92.1777 27.6281C92.6279 27.1583 92.853 26.545 92.853 25.7879C92.853 25.0313 92.6279 24.4177 92.1777 23.9479C91.7275 23.4781 91.1368 23.2432 90.406 23.2432C89.6751 23.2432 89.0849 23.4781 88.6345 23.9479C88.1844 24.4177 87.9592 25.0313 87.9592 25.7879C87.9592 26.545 88.1844 27.1583 88.6345 27.6281C89.0849 28.0979 89.6751 28.3328 90.406 28.3328C91.1368 28.3328 91.7275 28.0979 92.1777 27.6281ZM87.6069 30.0358C86.9413 29.6575 86.4159 29.1059 86.0312 28.3817C85.646 27.6575 85.4536 26.793 85.4536 25.7879C85.4536 24.7833 85.646 23.9185 86.0312 23.1943C86.4159 22.4701 86.9413 21.919 87.6069 21.5402C88.2725 21.1618 89.0031 20.9725 89.7993 20.9725C90.5039 20.9725 91.1074 21.1095 91.6102 21.3835C92.1122 21.6575 92.5135 22.0427 92.8139 22.5386H92.853V21.4801C92.853 21.4234 92.8755 21.3689 92.9157 21.3288C92.9558 21.2886 93.0103 21.2661 93.067 21.2661H95.0271C95.0838 21.2661 95.1383 21.2886 95.1784 21.3288C95.2186 21.3689 95.2411 21.4234 95.2411 21.4801V30.0957C95.2411 30.1525 95.2186 30.2069 95.1784 30.2471C95.1383 30.2872 95.0838 30.3098 95.0271 30.3098H93.067C93.0103 30.3098 92.9558 30.2872 92.9157 30.2471C92.8755 30.2069 92.853 30.1525 92.853 30.0957V29.0374H92.8139C92.5135 29.5336 92.1122 29.9183 91.61 30.1923C91.1074 30.4663 90.5041 30.6033 89.7993 30.6033C89.0031 30.6033 88.2725 30.4141 87.6069 30.0358ZM103.393 27.6281C103.843 27.1583 104.068 26.545 104.068 25.7879C104.068 25.0313 103.843 24.4177 103.393 23.9479C102.943 23.4781 102.352 23.2432 101.621 23.2432C100.89 23.2432 100.3 23.4781 99.8498 23.9479C99.3997 24.4177 99.1743 25.0313 99.1743 25.7879C99.1743 26.545 99.3997 27.1583 99.8498 27.6281C100.3 28.0979 100.89 28.3328 101.621 28.3328C102.352 28.3328 102.943 28.0979 103.393 27.6281ZM100.417 30.1923C99.915 29.9183 99.5135 29.5336 99.2136 29.0374H99.1743V30.0957C99.1743 30.1525 99.1518 30.2069 99.1116 30.2471C99.0715 30.2872 99.017 30.3098 98.9603 30.3098H96.9807C96.9239 30.3098 96.8695 30.2872 96.8293 30.2471C96.7892 30.2069 96.7666 30.1525 96.7666 30.0957V16.8212C96.7666 16.7644 96.7892 16.7099 96.8293 16.6698C96.8695 16.6297 96.9239 16.6071 96.9807 16.6071H98.9603C99.017 16.6071 99.0715 16.6297 99.1116 16.6698C99.1518 16.7099 99.1743 16.7644 99.1743 16.8212V22.5384H99.2136C99.5135 22.0425 99.915 21.6575 100.417 21.3835C100.92 21.1094 101.523 20.9724 102.228 20.9724C103.024 20.9724 103.755 21.1616 104.421 21.5401C105.086 21.9188 105.611 22.4699 105.996 23.194C106.381 23.9187 106.574 24.7834 106.574 25.7881C106.574 26.7931 106.381 27.6575 105.996 28.3818C105.611 29.1061 105.086 29.6576 104.421 30.0358C103.755 30.4142 103.024 30.6036 102.228 30.6036C101.524 30.6036 100.92 30.4665 100.417 30.1923ZM109.909 30.3099H107.93C107.873 30.3099 107.818 30.2874 107.778 30.2472C107.738 30.2071 107.716 30.1526 107.716 30.0958V16.8216C107.716 16.7648 107.738 16.7104 107.778 16.6702C107.818 16.6301 107.873 16.6075 107.93 16.6075H109.909C109.966 16.6075 110.02 16.6301 110.061 16.6702C110.101 16.7104 110.123 16.7648 110.123 16.8216V30.0958C110.123 30.1526 110.101 30.2071 110.061 30.2472C110.02 30.2874 109.966 30.3099 109.909 30.3099ZM114.579 23.3608C114.251 23.6168 114.029 23.9864 113.914 24.4699C113.883 24.6032 113.987 24.7311 114.124 24.7311H117.891C118.022 24.7311 118.125 24.614 118.103 24.485C118.028 24.0277 117.832 23.6631 117.515 23.3902C117.143 23.0706 116.657 22.9107 116.057 22.9107C115.456 22.9107 114.964 23.0607 114.579 23.3608ZM119.404 22.2352C120.174 23.0771 120.559 24.268 120.559 25.8076V26.0633C120.559 26.1201 120.536 26.1746 120.496 26.2147C120.456 26.2548 120.402 26.2774 120.345 26.2774H114.051C114.02 26.2775 113.989 26.2844 113.96 26.2976C113.932 26.3109 113.907 26.3302 113.887 26.3542C113.866 26.3782 113.852 26.4063 113.844 26.4366C113.835 26.4668 113.834 26.4985 113.839 26.5294C113.94 27.1014 114.193 27.5557 114.598 27.8924C115.061 28.2777 115.646 28.4699 116.35 28.4699C117.26 28.4699 118.102 28.1148 118.876 27.4046C118.971 27.3178 119.121 27.3363 119.194 27.4417L120.157 28.8231C120.187 28.866 120.2 28.9186 120.194 28.9707C120.188 29.0229 120.163 29.071 120.124 29.1059C119.652 29.5194 119.126 29.8683 118.562 30.1435C117.936 30.45 117.198 30.6036 116.35 30.6036C115.372 30.6036 114.517 30.4044 113.786 30.0065C113.055 29.6087 112.487 29.0476 112.083 28.323C111.678 27.5988 111.476 26.7604 111.476 25.8076C111.476 24.8552 111.672 24.0135 112.063 23.2825C112.455 22.5518 113.003 21.9842 113.708 21.5795C114.412 21.1752 115.235 20.9727 116.174 20.9727C117.557 20.9727 118.634 21.3937 119.404 22.2352ZM70.7392 18.0811C70.7392 18.8885 70.0846 19.5431 69.277 19.5431C68.4693 19.5431 67.8147 18.8885 67.8147 18.0809C67.8147 17.2734 68.4695 16.6188 69.277 16.6188C70.0846 16.6188 70.7392 17.2735 70.7392 18.0811Z" fill="#94A3B8"/>
<path d="M34.7932 12.7466L25.3804 16.6414C24.857 16.858 24.8624 17.6016 25.3891 17.8104L34.8411 21.5586C35.6716 21.888 36.5965 21.888 37.4269 21.5586L46.8791 17.8102C47.4056 17.6016 47.4113 16.8581 46.8876 16.6415L37.4752 12.7464C36.6164 12.3911 35.6519 12.3912 34.7932 12.7466Z" fill="#94A3B8"/>
<path d="M36.9734 23.6049V32.9687C36.9734 33.4139 37.4225 33.719 37.8365 33.5549L48.3689 29.4668C48.4863 29.4202 48.5871 29.3394 48.6581 29.2349C48.7291 29.1303 48.767 29.0069 48.767 28.8805V19.5169C48.767 19.0715 48.3179 18.7666 47.9039 18.9307L37.3715 23.0188C37.2541 23.0654 37.1533 23.1462 37.0824 23.2508C37.0114 23.3553 36.9734 23.4786 36.9734 23.6049Z" fill="#94A3B8"/>
<path d="M34.5132 24.0882L31.3874 25.5974L31.07 25.7508L24.4717 28.9124C24.0535 29.1142 23.5195 28.8094 23.5195 28.3447V19.5562C23.5195 19.3881 23.6057 19.243 23.7213 19.1338C23.7687 19.0866 23.8225 19.0462 23.8811 19.0139C24.0387 18.9193 24.2636 18.8941 24.4548 18.9697L34.4606 22.9343C34.9692 23.1361 35.0092 23.8486 34.5132 24.0882Z" fill="#94A3B8"/>
<path d="M34.5132 24.0882L31.3874 25.5974L23.7213 19.1338C23.7687 19.0866 23.8225 19.0462 23.8811 19.0139C24.0387 18.9193 24.2636 18.8941 24.4548 18.9697L34.4606 22.9343C34.9692 23.1361 35.0092 23.8486 34.5132 24.0882Z" fill="#94A3B8"/>
</svg>
