<svg width="144" height="48" viewBox="0 0 144 48" fill="none" xmlns="http://www.w3.org/2000/svg">
<path fill-rule="evenodd" clip-rule="evenodd" d="M61.5887 30.5269C60.6599 30.5269 60.1238 29.6739 60.0649 29.0036L60.0647 29.0021C59.1843 30.1681 57.4067 30.8014 55.7756 30.8014C52.0681 30.8014 49.0626 27.7932 49.0626 24.0825C49.0626 20.3719 52.0681 17.3641 55.7756 17.3641C57.4067 17.3641 59.0333 17.892 60.0649 19.1636V18.1925H60.067C60.0783 17.9912 60.2447 17.83 60.4483 17.83H62.1321C62.3357 17.83 62.502 17.9912 62.513 18.1925H62.5154V30.1434C62.5154 30.3542 62.3427 30.5269 62.1321 30.5269H61.5887ZM51.5126 24.0825C51.5126 26.4946 53.4243 28.4497 55.7823 28.4497C58.1401 28.4497 60.0515 26.4946 60.0515 24.0825C60.0515 21.6707 58.1401 19.7155 55.7823 19.7155C53.4243 19.7155 51.5126 21.6707 51.5126 24.0825Z" fill="#94A3B8"/>
<path d="M66.5382 27.2922C67.6622 28.0715 68.8892 28.45 70.0683 28.45C71.1916 28.45 72.3529 27.8673 72.3529 26.8529C72.3529 25.8258 70.8974 25.4565 69.5006 25.1021C69.0556 24.9892 68.6166 24.8778 68.2325 24.7471C66.6424 24.2064 65.2728 23.0885 65.2728 21.2782C65.2728 18.5082 67.7391 17.3641 70.041 17.3641C71.4995 17.3641 73.0044 17.8455 73.98 18.5349C74.316 18.7897 74.1114 19.0822 74.1114 19.0822L73.1801 20.4133C73.0754 20.5633 72.8924 20.6928 72.6296 20.5305C72.6114 20.5193 72.5901 20.5057 72.5656 20.4902C72.2369 20.2811 71.3481 19.7156 70.041 19.7156C68.6366 19.7156 67.7906 20.3647 67.7906 21.1692C67.7906 22.134 68.8901 22.4374 70.178 22.7662C72.4223 23.3717 74.8706 24.0993 74.8706 26.8529C74.8706 29.2935 72.5895 30.8018 70.0683 30.8018C68.1578 30.8018 66.5312 30.2567 65.1669 29.2549C64.8827 28.9702 65.0812 28.706 65.0812 28.706L66.0079 27.3815C66.1964 27.1339 66.4342 27.2203 66.5382 27.2922Z" fill="#94A3B8"/>
<path fill-rule="evenodd" clip-rule="evenodd" d="M118.166 29.0036C118.224 29.6739 118.76 30.5269 119.689 30.5269H120.233C120.443 30.5269 120.616 30.3542 120.616 30.1434V18.1925H120.614C120.603 17.9912 120.436 17.83 120.233 17.83H118.549C118.345 17.83 118.179 17.9912 118.168 18.1925H118.166V19.1636C117.134 17.892 115.507 17.3641 113.876 17.3641C110.169 17.3641 107.163 20.3719 107.163 24.0825C107.163 27.7932 110.169 30.801 113.876 30.801C115.507 30.801 117.285 30.1681 118.165 29.0021L118.166 29.0036ZM113.883 28.4497C111.525 28.4497 109.613 26.4946 109.613 24.0825C109.613 21.6707 111.525 19.7155 113.883 19.7155C116.241 19.7155 118.152 21.6707 118.152 24.0825C118.152 26.4946 116.241 28.4497 113.883 28.4497Z" fill="#94A3B8"/>
<path d="M105.034 23.2309C105.034 19.7449 102.837 17.3933 99.3328 17.3933C97.66 17.3933 96.2887 18.3613 95.8045 19.1929C95.6998 18.5427 95.3548 17.8592 94.2851 17.8592H93.7399C93.529 17.8592 93.3568 18.032 93.3568 18.2428V30.1947H93.3589C93.37 30.3957 93.5365 30.5572 93.7401 30.5572H95.424C95.4497 30.5572 95.475 30.5541 95.4994 30.5493C95.5066 30.5479 95.5134 30.5456 95.5203 30.5434C95.5241 30.5421 95.5279 30.5408 95.5318 30.5397C95.5355 30.5386 95.5392 30.5375 95.543 30.5365C95.5519 30.5339 95.5608 30.5314 95.5692 30.528C95.5809 30.5232 95.5917 30.517 95.6025 30.5109L95.6118 30.5057C95.6148 30.5038 95.6178 30.5022 95.6208 30.5006C95.6231 30.4995 95.6254 30.4983 95.6276 30.497C95.6292 30.4961 95.6307 30.4951 95.6323 30.4941C95.6491 30.4833 95.6646 30.4703 95.6794 30.457C95.6819 30.4544 95.6848 30.4529 95.6872 30.4506C95.7039 30.4344 95.7192 30.4165 95.7328 30.3979C95.775 30.34 95.8007 30.27 95.8049 30.1947H95.807V23.135C95.807 21.2628 97.3237 19.7449 99.1947 19.7449C101.066 19.7449 102.582 21.2628 102.582 23.135L102.584 29.0359L102.584 29.0339C102.584 29.0364 102.584 29.039 102.585 29.0417C102.585 29.0444 102.585 29.0472 102.585 29.0501V30.1947H102.587C102.598 30.3957 102.765 30.5572 102.968 30.5572H104.652C104.678 30.5572 104.703 30.5541 104.728 30.5493C104.738 30.5475 104.747 30.5435 104.757 30.5408L104.766 30.5381C104.777 30.5351 104.788 30.5321 104.798 30.528L104.802 30.5262C104.806 30.5243 104.81 30.5222 104.814 30.52C104.819 30.5176 104.823 30.5151 104.827 30.5125L104.837 30.507L104.841 30.5049L104.846 30.5022C104.851 30.4997 104.856 30.4973 104.861 30.4941C104.877 30.484 104.891 30.4716 104.905 30.4594L104.907 30.4576L104.913 30.4531C104.914 30.4522 104.915 30.4513 104.916 30.4502C104.932 30.4349 104.946 30.4183 104.959 30.4009L104.96 30.3995L104.961 30.3985L104.962 30.3972C105.003 30.3397 105.029 30.2705 105.033 30.1957L105.033 30.1947H105.036L105.034 23.2309Z" fill="#94A3B8"/>
<path fill-rule="evenodd" clip-rule="evenodd" d="M89.0218 30.5273C88.0931 30.5273 87.5571 29.6743 87.4982 29.0041L87.498 29.0026C86.6175 30.1686 84.8399 30.8019 83.2087 30.8019C79.5012 30.8019 76.4957 27.7936 76.4957 24.0829C76.4957 20.3724 79.5012 17.3646 83.2087 17.3646C84.8399 17.3646 86.4664 17.8924 87.4982 19.1641V18.193H87.5001C87.5115 17.9917 87.6778 17.8304 87.8814 17.8304H89.5653C89.7686 17.8304 89.9352 17.9917 89.9462 18.193H89.9483V30.1439C89.9483 30.3547 89.7759 30.5273 89.5653 30.5273H89.0218ZM78.9458 24.0829C78.9458 26.4951 80.8574 28.4502 83.2152 28.4502C85.5733 28.4502 87.4845 26.4951 87.4845 24.0829C87.4845 21.6712 85.5733 19.716 83.2152 19.716C80.8574 19.716 78.9458 21.6712 78.9458 24.0829Z" fill="#94A3B8"/>
<path fill-rule="evenodd" clip-rule="evenodd" d="M39.6505 24.5398C37.1554 24.5398 35.1328 26.5625 35.1328 29.0576C35.1328 31.5526 37.1554 33.5752 39.6505 33.5752C42.1456 33.5752 44.1681 31.5526 44.1681 29.0576C44.1681 26.5625 42.1456 24.5398 39.6505 24.5398ZM27.9132 24.5402C25.4182 24.5402 23.3955 26.5625 23.3955 29.0576C23.3955 31.5526 25.4182 33.5752 27.9132 33.5752C30.4083 33.5752 32.4311 31.5526 32.4311 29.0576C32.4311 26.5625 30.4083 24.5402 27.9132 24.5402ZM38.2994 18.8927C38.2994 21.3879 36.2768 23.4107 33.7819 23.4107C31.2867 23.4107 29.2642 21.3879 29.2642 18.8927C29.2642 16.3981 31.2867 14.3752 33.7819 14.3752C36.2768 14.3752 38.2994 16.3981 38.2994 18.8927Z" fill="#94A3B8"/>
</svg>
