<svg width="144" height="48" viewBox="0 0 144 48" fill="none" xmlns="http://www.w3.org/2000/svg">
<path d="M49.288 18.6173H53.8666C56.4028 18.6173 57.7195 19.6572 57.7195 21.6098V21.7071C57.7556 22.2793 57.5852 22.8455 57.2392 23.3026C56.8932 23.7598 56.3947 24.0777 55.8342 24.1984C56.5054 24.2574 57.1262 24.5789 57.5619 25.093C57.9975 25.607 58.2127 26.2722 58.1609 26.944V27.0113C58.1609 29.1435 56.7619 30.2657 54.0761 30.2657H49.288V18.6173ZM53.4402 23.3979C54.712 23.3979 55.2132 22.9415 55.2132 21.9016V21.8343C55.2132 20.8617 54.6596 20.4203 53.4252 20.4203H51.8616V23.4128L53.4402 23.3979ZM53.6646 28.4328C54.9664 28.4328 55.5574 27.8417 55.5574 26.7869V26.7196C55.5574 25.6422 54.9664 25.0961 53.5374 25.0961H51.8616V28.4402L53.6646 28.4328Z" fill="#94A3B8"/>
<path d="M58.8501 27.8939C58.8501 25.9038 60.6681 25.1557 63.279 25.1557H64.2366V24.8191C64.2366 23.8091 63.9299 23.2555 62.8526 23.2555C62.6782 23.2348 62.5014 23.25 62.3332 23.3002C62.1649 23.3503 62.0086 23.4344 61.8741 23.5473C61.7395 23.6601 61.6295 23.7993 61.5507 23.9562C61.472 24.1132 61.4262 24.2846 61.4162 24.46H59.1718C59.3214 22.44 60.9149 21.5422 63.0022 21.5422C65.0895 21.5422 66.5633 22.3876 66.5633 24.6994V30.2505H64.2666V29.2255C63.9783 29.6317 63.5897 29.9561 63.1386 30.1672C62.6876 30.3783 62.1895 30.4689 61.693 30.43C60.1518 30.43 58.8501 29.6819 58.8501 27.8939ZM64.2366 27.2729V26.5248H63.3239C61.9548 26.5248 61.1618 26.824 61.1618 27.7293C61.1618 28.3502 61.5359 28.7617 62.3962 28.7617C63.4361 28.7916 64.2366 28.2156 64.2366 27.2729Z" fill="#94A3B8"/>
<path d="M67.5588 27.5798H69.7583C69.8556 28.3279 70.2296 28.7918 71.2546 28.7918C72.1673 28.7918 72.5937 28.4476 72.5937 27.8566C72.5937 27.2656 72.085 27.0262 70.8656 26.8541C68.6212 26.51 67.7234 25.8591 67.7234 24.1983C67.7234 22.5374 69.3543 21.5424 71.09 21.5424C72.9828 21.5424 74.3967 22.2307 74.6062 24.1833H72.4441C72.3169 23.48 71.9204 23.1584 71.1124 23.1584C70.3045 23.1584 69.9079 23.5175 69.9079 24.0337C69.9079 24.5499 70.3119 24.7818 71.5464 24.9613C73.6785 25.2681 74.8531 25.8067 74.8531 27.6322C74.8531 29.4576 73.5214 30.4302 71.2695 30.4302C69.0177 30.4302 67.6411 29.4202 67.5588 27.5798Z" fill="#94A3B8"/>
<path d="M75.4601 26.0986V25.9714C75.4317 25.3868 75.5251 24.8026 75.7343 24.2559C75.9435 23.7092 76.264 23.2119 76.6754 22.7956C77.0869 22.3792 77.5803 22.0528 78.1245 21.8371C78.6686 21.6214 79.2517 21.5211 79.8367 21.5425C82.0362 21.5425 83.9888 22.8293 83.9888 25.8742V26.5251H77.8765C77.9364 27.939 78.707 28.7695 79.9863 28.7695C81.0785 28.7695 81.6172 28.2981 81.7668 27.5799H84.0112C83.7344 29.4203 82.2681 30.4453 79.9414 30.4453C77.3304 30.4303 75.4601 28.8218 75.4601 26.0986ZM81.692 25.0737C81.6172 23.7869 80.9588 23.2034 79.8367 23.2034C79.3314 23.201 78.845 23.3945 78.4795 23.7433C78.1139 24.0921 77.8978 24.5689 77.8765 25.0737H81.692Z" fill="#94A3B8"/>
<path d="M84.6101 26.0985V25.9713C84.5816 25.3853 84.6754 24.7998 84.8855 24.2521C85.0956 23.7043 85.4174 23.2063 85.8305 22.7897C86.2436 22.3731 86.7389 22.0471 87.2848 21.8323C87.8308 21.6176 88.4154 21.5188 89.0016 21.5424C90.9767 21.5424 92.7947 22.4027 93.0116 24.8491H90.7672C90.7523 24.6391 90.6953 24.4343 90.5997 24.2467C90.504 24.0592 90.3717 23.8928 90.2105 23.7574C90.0493 23.6221 89.8625 23.5205 89.6613 23.4587C89.46 23.3969 89.2484 23.3761 89.039 23.3977C87.8196 23.3977 87.0041 24.3104 87.0041 25.9414V26.0685C87.0041 27.7818 87.7523 28.6571 89.0914 28.6571C89.3193 28.6702 89.5474 28.6378 89.7627 28.5619C89.9779 28.486 90.1758 28.368 90.345 28.2148C90.5142 28.0616 90.6512 27.8763 90.7481 27.6697C90.845 27.4631 90.8998 27.2392 90.9094 27.0112H93.0415C92.9144 29.0311 91.448 30.4301 88.9717 30.4301C86.4954 30.4301 84.6101 28.8815 84.6101 26.0985Z" fill="#94A3B8"/>
<path d="M93.5856 27.8939C93.5856 25.9038 95.4036 25.1557 98.0071 25.1557H98.9722V24.8191C98.9722 23.8091 98.658 23.2555 97.5881 23.2555C97.4126 23.2325 97.2342 23.2461 97.0641 23.2953C96.8941 23.3444 96.736 23.4282 96.5998 23.5412C96.4636 23.6543 96.3521 23.7942 96.2725 23.9523C96.1928 24.1104 96.1466 24.2832 96.1368 24.46H93.8924C94.042 22.44 95.6355 21.5422 97.7153 21.5422C99.7951 21.5422 101.284 22.3876 101.284 24.6994V30.2505H98.9871V29.2255C98.6989 29.6317 98.3103 29.9561 97.8592 30.1672C97.4082 30.3783 96.9101 30.4689 96.4136 30.43C94.9173 30.43 93.5856 29.6819 93.5856 27.8939ZM98.9722 27.2729V26.5248H98.0744C96.7053 26.5248 95.9048 26.824 95.9048 27.7293C95.9048 28.3502 96.2864 28.7617 97.1467 28.7617C98.2016 28.7916 99.0021 28.2156 99.0021 27.2729H98.9722Z" fill="#94A3B8"/>
<path d="M102.946 21.707H105.303V23.0087C105.56 22.5462 105.938 22.1625 106.397 21.8989C106.855 21.6352 107.377 21.5017 107.906 21.5125C108.411 21.4721 108.915 21.5959 109.344 21.8656C109.773 22.1352 110.103 22.5362 110.285 23.0087C110.599 22.5395 111.026 22.1566 111.527 21.8951C112.028 21.6337 112.586 21.5021 113.151 21.5125C114.729 21.5125 115.949 22.5075 115.949 24.7668V30.2207H113.607V25.0586C113.607 23.9663 113.121 23.4801 112.268 23.4801C112.041 23.4702 111.815 23.5094 111.604 23.595C111.394 23.6806 111.204 23.8105 111.049 23.976C110.893 24.1415 110.775 24.3386 110.703 24.5538C110.631 24.769 110.605 24.9974 110.629 25.2232V30.2506H108.28V25.0586C108.28 23.9663 107.779 23.4801 106.949 23.4801C106.721 23.4691 106.494 23.5074 106.283 23.5925C106.071 23.6776 105.881 23.8074 105.725 23.973C105.568 24.1386 105.45 24.3361 105.377 24.5519C105.304 24.7677 105.279 24.9967 105.303 25.2232V30.2506H102.946V21.707Z" fill="#94A3B8"/>
<path d="M117.564 21.707H119.928V23.0461C120.21 22.5777 120.608 22.1903 121.084 21.9215C121.56 21.6527 122.097 21.5118 122.644 21.5125C124.731 21.5125 126.384 23.0611 126.384 25.8741V26.0087C126.384 28.8217 124.791 30.4002 122.644 30.4002C122.098 30.4227 121.556 30.295 121.077 30.0313C120.598 29.7675 120.201 29.3776 119.928 28.904V33.1534H117.564V21.707ZM123.96 25.8965C123.96 24.1683 123.115 23.3229 121.926 23.3229C120.736 23.3229 119.846 24.1833 119.846 25.8965V26.0237C119.846 27.7294 120.661 28.5598 121.948 28.5598C123.235 28.5598 123.96 27.692 123.96 26.0536V25.8965Z" fill="#94A3B8"/>
<path fill-rule="evenodd" clip-rule="evenodd" d="M31.7981 14.5511C25.1596 14.5511 21.6975 20.1741 19.7591 25.6699C19.5248 26.3343 18.7963 26.6829 18.1319 26.4486C17.4675 26.2142 17.1189 25.4857 17.3533 24.8214C19.3201 19.2449 23.3393 12 31.7981 12C36.2195 12 39.3842 14.925 41.4309 18.4391C43.483 21.9623 44.5771 26.3249 44.8237 29.8473C44.8414 30.1005 44.7832 30.3532 44.6565 30.5731C43.4712 32.6307 41.4993 33.9716 39.2515 34.7929C37.0092 35.6121 34.4118 35.9468 31.8083 35.9476C29.5964 35.9821 27.403 35.5395 25.3775 34.6497C23.3488 33.7586 21.5364 32.4399 20.0642 30.7839C19.751 30.4316 19.6577 29.9353 19.8214 29.4933L21.0175 29.9364C19.8214 29.4933 19.8214 29.4933 19.8214 29.4933L19.8242 29.4858L19.8304 29.4692C19.8357 29.4551 19.8433 29.4351 19.853 29.4096C19.8725 29.3586 19.9007 29.2855 19.9371 29.1935C20.0098 29.0095 20.1153 28.749 20.2487 28.4372C20.5143 27.8165 20.896 26.9799 21.3544 26.1353C21.8068 25.3018 22.363 24.4057 22.9886 23.6997C23.5589 23.0561 24.4454 22.2721 25.58 22.2644L25.5886 22.2643C26.3904 22.2643 27.0489 22.6314 27.523 22.9843C28.0008 23.34 28.4348 23.7921 28.7826 24.1601C28.8225 24.2023 28.8612 24.2434 28.899 24.2834C29.2228 24.6268 29.4705 24.8894 29.7058 25.086C29.7323 25.1082 29.7566 25.1276 29.7787 25.1448C29.8552 25.0666 29.9466 24.9641 30.0517 24.8338C30.4255 24.3703 30.8454 23.7175 31.2518 23.0185C31.6528 22.3287 32.0178 21.6339 32.2839 21.1084C32.4165 20.8465 32.5235 20.6287 32.5969 20.4772C32.6336 20.4015 32.6619 20.3424 32.6808 20.3028L32.7018 20.2584L32.7079 20.2456C33.0069 19.6078 33.7665 19.3328 34.4044 19.6318C35.0422 19.9308 35.3169 20.6903 35.0179 21.3282L33.9645 20.8344C35.0179 21.3282 35.0179 21.3282 35.0179 21.3282L35.0152 21.334L35.0085 21.3481L34.984 21.3998C34.9628 21.4444 34.9319 21.5088 34.8925 21.5902C34.8136 21.7529 34.7001 21.9839 34.5599 22.2607C34.2806 22.8125 33.8914 23.5541 33.4573 24.3007C33.0285 25.0382 32.5325 25.8217 32.0373 26.4355C31.7918 26.7399 31.5134 27.0444 31.2124 27.2838C30.9464 27.4954 30.477 27.808 29.8754 27.808C29.0799 27.808 28.4531 27.3638 28.07 27.0436C27.7089 26.7419 27.3482 26.3584 27.0452 26.0363C27.0052 25.9938 26.9662 25.9523 26.9284 25.9123C26.5692 25.5321 26.2755 25.2361 25.9996 25.0307C25.7578 24.8507 25.6344 24.8211 25.5989 24.8163C25.5989 24.8163 25.5964 24.8173 25.5941 24.8181C25.5552 24.8318 25.3208 24.9144 24.898 25.3916C24.4596 25.8864 24.0111 26.5885 23.5965 27.3522C23.1881 28.1049 22.8407 28.8646 22.5941 29.4409C22.5623 29.5151 22.5323 29.5861 22.5042 29.6535C23.6268 30.7721 24.9485 31.6748 26.4035 32.314C28.096 33.0575 29.929 33.4268 31.7774 33.3967C31.7843 33.3966 31.7912 33.3965 31.7981 33.3965C34.2112 33.3965 36.4952 33.0838 38.376 32.3967C40.1063 31.7645 41.4261 30.8431 42.2466 29.6199C41.9686 26.4852 40.9701 22.7166 39.2265 19.723C37.4016 16.59 34.9254 14.5511 31.7981 14.5511ZM29.569 25.3261C29.569 25.3261 29.5746 25.3218 29.5853 25.3163C29.5743 25.3238 29.569 25.3261 29.569 25.3261Z" fill="#94A3B8"/>
</svg>
