<svg width="144" height="48" viewBox="0 0 144 48" fill="none" xmlns="http://www.w3.org/2000/svg">
<path d="M44.8053 28.7684L44.1307 28.9077V28.9117L44.1506 29.4689H55.3079L55.5865 24.7887H54.9497C54.4323 26.0423 54.0543 26.8781 53.6961 27.4153C53.0394 28.3884 52.723 28.5874 51.1311 28.5874C49.2009 28.5874 49.1412 28.3884 49.1412 26.6194V22.8009H49.6785C51.1311 22.8009 51.3898 22.9004 51.6286 23.3978C51.8835 23.9078 52.0894 24.4408 52.2435 24.9897H52.8404V19.8599H52.2435C52.1063 20.3883 51.8995 20.8962 51.6286 21.3702C51.3898 21.8079 51.0714 21.9671 49.6785 21.9671H49.1412V16.895C49.7324 16.7436 50.3421 16.6767 50.952 16.696C52.3231 16.696 52.7409 16.7756 53.3777 17.6909C53.809 18.3607 54.1818 19.0664 54.492 19.8002H55.1089L54.9099 15.8423H44.1307V16.3995L44.8053 16.5388C45.3823 16.6761 45.5614 16.7756 45.5614 17.9695V27.3377C45.5614 28.5297 45.4022 28.6093 44.8053 28.7684Z" fill="#94A3B8"/>
<path d="M56.0849 19.8996C56.5824 20.0568 56.8013 20.3353 57.2589 21.4497L60.5045 29.4688H62.176L65.2165 21.6705C65.6941 20.3771 65.913 20.0806 66.4303 19.9016L66.8064 19.7822V19.2648H63.1669V19.7822L63.7042 19.9215C64.1221 20.0209 64.3211 20.2398 64.3211 20.6756C64.2996 21.0527 64.212 21.4232 64.0624 21.77L62.4705 26.3049H62.371L60.7194 21.77C60.576 21.435 60.4886 21.0787 60.4607 20.7154C60.4607 20.2378 60.6597 20.0389 61.0775 19.9195L61.6148 19.7802V19.2628H55.7088V19.7802L56.0849 19.8996Z" fill="#94A3B8"/>
<path fill-rule="evenodd" clip-rule="evenodd" d="M66.3513 24.3135C66.3513 20.8929 68.8765 19.0045 71.4813 19.0045C74.1855 19.0045 75.8769 20.3556 75.9366 23.9175H69.4476C69.5073 27.1391 70.7191 28.0126 72.7488 28.0126C73.7553 28.0079 74.7454 27.7564 75.6322 27.2803V27.935C75.0942 28.4962 74.4491 28.9439 73.7351 29.2515C73.0211 29.5591 72.2527 29.7204 71.4753 29.7259C68.0547 29.6841 66.3513 27.6544 66.3513 24.3135ZM69.4536 23.1613L72.8145 22.9823C72.8145 20.6143 72.4961 19.7408 71.3221 19.7408C70.3311 19.7408 69.5351 20.6939 69.4476 23.1613H69.4536Z" fill="#94A3B8"/>
<path d="M84.1258 18.9445C82.8124 18.9445 81.6782 19.9176 81.123 20.5145L81.1171 20.4946H81.0574L81.0972 19.1435L80.8783 18.9843L76.7473 19.4619V19.8599L77.4039 20.2956L77.4197 20.3064C77.961 20.6749 78.0586 20.7414 78.0586 21.5691V27.678C78.0586 28.5137 77.979 28.6132 77.3243 28.7923L76.807 28.9316V29.4689H82.4742V28.9316L81.8175 28.7923C81.2225 28.6928 81.1429 28.5933 81.1429 27.678V21.3105C81.4016 21.0717 81.8175 20.813 82.1757 20.813C82.2849 20.8062 82.3939 20.8284 82.4917 20.8774C82.5896 20.9263 82.6728 21.0002 82.7328 21.0916C82.8498 21.3638 83.0442 21.5957 83.2918 21.7585C83.5395 21.9212 83.8295 22.0076 84.1258 22.0069C84.5223 21.9926 84.8979 21.825 85.1733 21.5394C85.4488 21.2539 85.6028 20.8725 85.6028 20.4757C85.6028 20.0789 85.4488 19.6976 85.1733 19.412C84.8979 19.1264 84.5223 18.9588 84.1258 18.9445Z" fill="#94A3B8"/>
<path d="M86.2513 28.9278L86.7687 28.7885C87.4254 28.6094 87.505 28.5099 87.505 27.6742V21.5693C87.505 20.7413 87.4073 20.675 86.8636 20.3062L86.8483 20.2958L86.1916 19.86V19.4621L90.3286 18.9845L90.5475 19.1238L90.5077 20.3754H90.5873C91.622 19.6411 92.9135 18.9825 94.3462 18.9825C96.0177 18.9825 96.9112 19.8381 96.9112 21.6071V27.6523C96.9112 28.5079 96.9908 28.6074 97.6275 28.7666L98.1449 28.9059V29.4432H92.6767V28.9059L93.1543 28.7865C93.7512 28.6273 93.8109 28.5676 93.8109 27.6523V22.3852C93.8109 21.1912 93.3731 20.8132 92.4578 20.8132C91.8406 20.8319 91.2273 20.9187 90.6291 21.0718V27.6782C90.6291 28.6134 90.6888 28.6532 91.2858 28.8124L91.7633 28.9318V29.469H86.2931V28.9318L86.2513 28.9278Z" fill="#94A3B8"/>
<path fill-rule="evenodd" clip-rule="evenodd" d="M103.833 19.0003C101.188 19.0003 98.5235 20.6141 98.5235 24.3729C98.5235 27.9726 100.989 29.6838 103.833 29.6799C106.539 29.6799 109.163 28.0283 109.163 24.2694C109.163 20.7096 106.678 19.0003 103.833 19.0003ZM103.777 19.7604C105.13 19.7604 105.886 20.5146 105.886 24.4724H105.882C105.882 28.2312 105.066 28.9277 103.896 28.9277C102.465 28.9277 101.809 28.0522 101.809 24.0346C101.809 20.6539 102.545 19.7604 103.777 19.7604Z" fill="#94A3B8"/>
<path d="M110.877 26.9792V20.4127H109.645V19.9391C110.398 19.6612 111.08 19.2213 111.643 18.6505C112.207 18.0797 112.638 17.3919 112.907 16.6359H114.021V19.2625H116.626L116.367 20.4147H114.021V26.7822C114.021 27.7552 114.319 28.1532 115.292 28.1532C115.768 28.1404 116.241 28.0805 116.705 27.9741V28.5313C115.86 29.3031 114.747 29.7169 113.603 29.6854C111.832 29.6834 110.877 28.9074 110.877 26.9792Z" fill="#94A3B8"/>
<path fill-rule="evenodd" clip-rule="evenodd" d="M122.223 19.0045C119.619 19.0045 117.094 20.8929 117.094 24.3135C117.094 27.6544 118.789 29.6841 122.229 29.7259C123.007 29.7204 123.775 29.5591 124.489 29.2515C125.203 28.9439 125.848 28.4962 126.386 27.935V27.2803C125.499 27.7564 124.509 28.0079 123.503 28.0126C121.475 28.0126 120.261 27.1391 120.202 23.9175H126.679C126.619 20.3556 124.93 19.0045 122.223 19.0045ZM120.182 23.161L123.537 22.9823C123.537 20.6143 123.218 19.7408 122.044 19.7408C121.057 19.7408 120.261 20.6938 120.182 23.161Z" fill="#94A3B8"/>
<path d="M24.1931 17.3686C24.2161 17.689 24.1228 18.0069 23.9304 18.2641C23.6717 18.5048 23.2678 18.5247 23.035 18.5247H20.4879C19.9967 18.5109 19.5051 18.5241 19.0154 18.5645C18.858 18.5933 18.7044 18.64 18.5577 18.7038C18.5279 18.7158 18.5179 18.7038 18.5378 18.6839L24.3523 12.7741C24.3722 12.7542 24.3841 12.7621 24.3722 12.794C24.3083 12.9407 24.2616 13.0942 24.2329 13.2516C24.1925 13.7413 24.1792 14.2329 24.1931 14.7241V17.3686ZM29.5956 35.2395C29.0746 34.9114 28.6658 34.4325 28.4236 33.8665C28.2427 33.4096 28.1768 32.9152 28.2317 32.4268C28.2866 31.9384 28.4607 31.471 28.7385 31.0656C29.0164 30.6602 29.3895 30.3293 29.8252 30.1019C30.2609 29.8745 30.7458 29.7576 31.2373 29.7614C31.355 29.7617 31.4715 29.7853 31.5801 29.8308C31.6887 29.8764 31.7872 29.943 31.8699 30.0268C31.9526 30.1106 32.0179 30.2099 32.062 30.3191C32.106 30.4283 32.1281 30.5451 32.1268 30.6628C32.1251 30.8225 32.0813 30.9788 31.9999 31.1161C31.9185 31.2534 31.8023 31.3668 31.6631 31.4449C31.5573 31.5012 31.443 31.5402 31.3248 31.5603C31.0924 31.578 30.8678 31.6517 30.6702 31.7752C30.5615 31.8566 30.4731 31.962 30.4116 32.0831C30.3502 32.2042 30.3175 32.3378 30.316 32.4736C30.3152 32.7642 30.4297 33.0433 30.6343 33.2497C30.8117 33.4276 31.0226 33.5685 31.2549 33.6642C31.4872 33.7598 31.7362 33.8083 31.9875 33.8068C32.309 33.8071 32.6273 33.744 32.9244 33.621C33.2215 33.4981 33.4914 33.3179 33.7187 33.0905C33.9461 32.8632 34.1263 32.5933 34.2492 32.2962C34.3722 31.9992 34.4353 31.6808 34.435 31.3593C34.435 30.1455 33.6192 29.071 32.5446 28.5934C32.3324 28.5069 32.1125 28.4403 31.888 28.3944C31.5895 28.3347 31.3109 28.2949 31.291 28.2949C30.4552 28.1954 28.3659 27.5388 28.2266 25.6882C28.2266 25.6882 27.6097 28.474 26.376 29.2302C26.2303 29.3013 26.0767 29.3547 25.9183 29.3893C25.7743 29.4213 25.6278 29.4412 25.4805 29.449C23.4707 29.5684 21.3416 28.9317 19.869 27.4194C19.869 27.4194 18.8741 26.6035 18.3567 24.3152C18.2373 23.7581 17.9986 22.7631 17.8593 21.8279C17.7996 21.4896 17.7797 21.2309 17.7598 20.9922C17.7598 20.0271 18.3567 19.3605 19.1029 19.267H23.1583C23.8548 19.267 24.2528 19.0879 24.5115 18.8491C24.8497 18.5307 24.9293 18.073 24.9293 17.5358V13.4606C24.9293 13.4327 24.9293 13.367 24.9293 13.3432C25.0229 12.5989 25.6895 12 26.6546 12H27.1321C27.3526 12.0013 27.5727 12.0179 27.7908 12.0497C27.9712 12.0757 28.1499 12.1123 28.3261 12.1592C29.5399 12.4616 29.7986 13.6914 29.7986 13.6914L33.2411 14.2883C34.3355 14.4873 37.0418 14.6664 37.5591 17.3925C38.773 23.8794 38.0367 30.1674 37.977 30.1674C37.1214 36.2961 32.0273 35.9976 32.0273 35.9976C31.1599 35.9889 30.3142 35.7253 29.5956 35.2395ZM34.1823 22.192C33.5237 22.1244 32.9645 22.391 32.7595 22.8925C32.7153 22.9783 32.696 23.0748 32.7038 23.171C32.7123 23.1939 32.7258 23.2146 32.7434 23.2315C32.7609 23.2483 32.7821 23.261 32.8053 23.2685C33.198 23.4061 33.6078 23.4885 34.0231 23.5133C34.5982 23.5829 35.0021 23.6208 35.2628 23.565C35.2871 23.5631 35.3107 23.5556 35.3317 23.5432C35.3528 23.5308 35.3707 23.5138 35.3842 23.4934C35.4158 23.4017 35.42 23.3028 35.3961 23.2089C35.3106 22.6756 34.837 22.2895 34.1823 22.2V22.192Z" fill="#94A3B8"/>
</svg>
