<svg width="144" height="48" viewBox="0 0 144 48" fill="none" xmlns="http://www.w3.org/2000/svg">
<path fill-rule="evenodd" clip-rule="evenodd" d="M48.3889 9.66578L32.4526 10.842C31.1675 10.9535 30.7197 11.7937 30.7197 12.801V30.2704C30.7197 31.0553 30.9989 31.7261 31.6701 32.6228L35.4163 37.4941C36.0317 38.2786 36.5909 38.4463 37.7659 38.3902L56.2726 37.2701C57.8379 37.1587 58.2856 36.4303 58.2856 35.1985V15.5449C58.2856 14.9081 58.0342 14.7242 57.2932 14.182C57.2524 14.1522 57.2102 14.1213 57.1664 14.0891L52.0794 10.5057C50.8494 9.61023 50.3459 9.49755 48.3889 9.66578ZM38.185 15.2225C36.6741 15.3247 36.3308 15.348 35.4728 14.6494L33.291 12.9136C33.0684 12.6892 33.18 12.4092 33.7387 12.3537L49.0587 11.2337C50.3443 11.1215 51.0151 11.5702 51.5186 11.9619L54.1462 13.8658C54.2581 13.9216 54.5371 14.2571 54.2016 14.2571L38.3801 15.2093C38.3141 15.2138 38.2502 15.2181 38.1883 15.2223L38.1861 15.2224L38.185 15.2225ZM36.4227 35.0302V18.345C36.4227 17.6173 36.6464 17.2811 37.3169 17.2245L55.4874 16.1611C56.1037 16.1051 56.3828 16.4973 56.3828 17.2245V33.7978C56.3828 34.5262 56.2707 35.1431 55.2639 35.1985L37.8761 36.2069C36.8698 36.2624 36.4227 35.927 36.4227 35.0302ZM53.588 19.24C53.6995 19.7444 53.588 20.2484 53.0838 20.3051L52.246 20.4724V32.7905C51.5186 33.1824 50.8478 33.4064 50.2889 33.4064C49.394 33.4064 49.1698 33.1262 48.4995 32.2868L43.0195 23.664V32.0068L44.7536 32.3991C44.7536 32.3991 44.7536 33.4064 43.3546 33.4064L39.4977 33.6306C39.3856 33.4064 39.4977 32.847 39.8889 32.7348L40.8954 32.4553V21.4246L39.4979 21.3124C39.3859 20.808 39.665 20.0807 40.4483 20.0242L44.5859 19.7447L50.2889 28.4796V20.7524L48.8349 20.5851C48.7232 19.9684 49.1698 19.5207 49.7291 19.4652L53.588 19.24Z" fill="#94A3B8"/>
<path d="M95.8476 30.0017H93.9374V21.5412H95.8476V30.0017Z" fill="#94A3B8"/>
<path d="M96.0333 18.9891C96.0333 19.631 95.5228 20.1414 94.8887 20.1414C94.2622 20.1414 93.7441 19.631 93.7441 18.9891C93.7441 18.3472 94.2622 17.829 94.8887 17.829C95.5228 17.829 96.0333 18.3472 96.0333 18.9891Z" fill="#94A3B8"/>
<path d="M70.496 22.4072V30.0016H68.5703V18.842H70.3027L75.7781 26.4286H75.9096V18.842H77.8275V30.0016H76.1029L70.6275 22.4072H70.496Z" fill="#94A3B8"/>
<path fill-rule="evenodd" clip-rule="evenodd" d="M87.3139 25.7714C87.3139 28.5167 85.7749 30.1717 83.246 30.1717C80.7094 30.1717 79.1781 28.5167 79.1781 25.7714C79.1781 23.0414 80.7326 21.3709 83.246 21.3709C85.7672 21.3709 87.3139 23.0336 87.3139 25.7714ZM81.1425 25.7714C81.1425 27.5423 81.9081 28.5631 83.246 28.5631C84.5839 28.5631 85.3419 27.5423 85.3419 25.7714C85.3419 24.0081 84.5762 22.9795 83.246 22.9795C81.9081 22.9795 81.1425 24.0081 81.1425 25.7714Z" fill="#94A3B8"/>
<path d="M89.066 19.4682V21.595H87.7281V23.1262H89.066V27.7432C89.066 29.3827 89.8393 30.04 91.7805 30.04C92.1517 30.04 92.5075 30.0014 92.7859 29.9472V28.4469L92.7671 28.4488C92.5458 28.4709 92.3995 28.4856 92.1363 28.4856C91.332 28.4856 90.9762 28.1144 90.9762 27.2792V23.1262H92.7859V21.595H90.9762V19.4682H89.066Z" fill="#94A3B8"/>
<path fill-rule="evenodd" clip-rule="evenodd" d="M101.087 30.1717C103.616 30.1717 105.155 28.5167 105.155 25.7714C105.155 23.0336 103.608 21.3709 101.087 21.3709C98.5732 21.3709 97.0187 23.0414 97.0187 25.7714C97.0187 28.5167 98.55 30.1717 101.087 30.1717ZM101.087 28.5631C99.7488 28.5631 98.9831 27.5423 98.9831 25.7714C98.9831 24.0081 99.7488 22.9795 101.087 22.9795C102.417 22.9795 103.182 24.0081 103.182 25.7714C103.182 27.5423 102.425 28.5631 101.087 28.5631Z" fill="#94A3B8"/>
<path d="M108.214 30.0016H106.296V21.541H108.145V22.8944H108.276C108.678 21.9509 109.529 21.3709 110.789 21.3709C112.677 21.3709 113.705 22.5077 113.705 24.5262V30.0016H111.787V24.9825C111.787 23.691 111.246 23.0414 110.078 23.0414C108.933 23.0414 108.214 23.8302 108.214 25.0753V30.0016Z" fill="#94A3B8"/>
</svg>
