<svg width="144" height="48" viewBox="0 0 144 48" fill="none" xmlns="http://www.w3.org/2000/svg">
<path d="M54.8246 30.8983L56.0093 28.1467C57.2896 29.1021 58.9903 29.5989 60.6719 29.5989C61.914 29.5989 62.6975 29.1212 62.6975 28.3951C62.6784 26.3696 55.2641 27.9556 55.2068 22.8728C55.1876 20.2931 57.4807 18.3059 60.7293 18.3059C62.6593 18.3059 64.5893 18.7836 65.9651 19.8727L64.8568 22.6817C63.5956 21.8791 62.0287 21.3059 60.5382 21.3059C59.5254 21.3059 58.8566 21.7836 58.8566 22.3951C58.8757 24.3823 66.3473 23.2932 66.4237 28.1467C66.4237 30.7836 64.188 32.6372 60.9777 32.6372C58.6273 32.6372 56.4679 32.083 54.8246 30.8983Z" fill="#94A3B8"/>
<path d="M100.285 27.153C99.6926 28.1849 98.5843 28.8919 97.304 28.8919C95.4122 28.8919 93.8835 27.3632 93.8835 25.4715C93.8835 23.5798 95.4122 22.0511 97.304 22.0511C98.5843 22.0511 99.6926 22.7581 100.285 23.79L103.553 21.9747C102.33 19.7963 99.9792 18.3059 97.304 18.3059C93.3484 18.3059 90.1381 21.5161 90.1381 25.4715C90.1381 29.4269 93.3484 32.6372 97.304 32.6372C99.9984 32.6372 102.33 31.1658 103.553 28.9683L100.285 27.153Z" fill="#94A3B8"/>
<path d="M68.0687 12.3629H72.158V32.3694H68.0687V12.3629Z" fill="#94A3B8"/>
<path d="M105.157 12.3629V32.3694H109.247V26.3693L114.1 32.3694H119.336L113.164 25.242L118.878 18.5922H113.871L109.247 24.1146V12.3629H105.157Z" fill="#94A3B8"/>
<path d="M84.3097 27.1913C83.7173 28.1658 82.4944 28.8919 81.1185 28.8919C79.2267 28.8919 77.698 27.3632 77.698 25.4715C77.698 23.5798 79.2267 22.0511 81.1185 22.0511C82.4944 22.0511 83.7173 22.8154 84.3097 23.8091V27.1913ZM84.3097 18.5925V20.2167C83.6409 19.0893 81.9784 18.3059 80.2395 18.3059C76.647 18.3059 73.8189 21.4779 73.8189 25.4524C73.8189 29.4269 76.647 32.6372 80.2395 32.6372C81.9784 32.6372 83.6409 31.8537 84.3097 30.7263V32.3505H88.399V18.5925H84.3097Z" fill="#94A3B8"/>
<path d="M29.5159 27.1687C29.5159 28.5574 28.3815 29.6919 26.9928 29.6919C25.6041 29.6919 24.4697 28.5574 24.4697 27.1687C24.4697 25.7799 25.6041 24.6455 26.9928 24.6455H29.5159V27.1687Z" fill="#94A3B8"/>
<path d="M30.7866 27.1687C30.7866 25.78 31.921 24.6455 33.3097 24.6455C34.6984 24.6455 35.8328 25.78 35.8328 27.1687V33.4865C35.8328 34.8752 34.6984 36.0097 33.3097 36.0097C31.921 36.0097 30.7866 34.8752 30.7866 33.4865V27.1687Z" fill="#94A3B8"/>
<path d="M33.3097 17.0366C31.921 17.0366 30.7866 15.9022 30.7866 14.5134C30.7866 13.1247 31.921 11.9902 33.3097 11.9902C34.6984 11.9902 35.8328 13.1247 35.8328 14.5134V17.0366H33.3097Z" fill="#94A3B8"/>
<path d="M33.3103 18.308C34.699 18.308 35.8334 19.4425 35.8334 20.8312C35.8334 22.22 34.699 23.3544 33.3103 23.3544H26.9928C25.6041 23.3544 24.4697 22.22 24.4697 20.8312C24.4697 19.4425 25.6041 18.308 26.9928 18.308H33.3103Z" fill="#94A3B8"/>
<path d="M43.4422 20.8312C43.4422 19.4424 44.5766 18.308 45.9652 18.308C47.3539 18.308 48.4883 19.4424 48.4883 20.8312C48.4883 22.2199 47.3539 23.3544 45.9652 23.3544H43.4422V20.8312Z" fill="#94A3B8"/>
<path d="M42.1714 20.8312C42.1714 22.22 41.037 23.3544 39.6484 23.3544C38.2597 23.3544 37.1253 22.22 37.1253 20.8312V14.5134C37.1253 13.1247 38.2597 11.9902 39.6484 11.9902C41.037 11.9902 42.1714 13.1247 42.1714 14.5134V20.8312Z" fill="#94A3B8"/>
<path d="M39.6484 30.9633C41.037 30.9633 42.1714 32.0978 42.1714 33.4865C42.1714 34.8753 41.037 36.0097 39.6484 36.0097C38.2597 36.0097 37.1253 34.8753 37.1253 33.4865V30.9633H39.6484Z" fill="#94A3B8"/>
<path d="M39.6484 29.6919C38.2597 29.6919 37.1253 28.5575 37.1253 27.1687C37.1253 25.78 38.2597 24.6455 39.6484 24.6455H45.9658C47.3545 24.6455 48.4889 25.78 48.4889 27.1687C48.4889 28.5575 47.3545 29.6919 45.9658 29.6919H39.6484Z" fill="#94A3B8"/>
</svg>
