<svg width="560" height="376" viewBox="0 0 560 376" fill="none" xmlns="http://www.w3.org/2000/svg">
<g clip-path="url(#clip0_799_1778)">
<g clip-path="url(#clip1_799_1778)">
<rect x="84" y="72" width="440" height="266" rx="16" fill="#4074BC" fill-opacity="0.03"/>
</g>
<rect x="84.5" y="72.5" width="439" height="265" rx="15.5" stroke="#94A3B8" stroke-opacity="0.1"/>
<g filter="url(#filter0_d_799_1778)">
<rect x="36" y="38" width="360" height="254" rx="16" fill="white"/>
</g>
<path d="M95 75H75C71.134 75 68 78.134 68 82C68 85.866 71.134 89 75 89H95C98.866 89 102 85.866 102 82C102 78.134 98.866 75 95 75Z" fill="#ECEFF1"/>
<path d="M171 75H117C113.134 75 110 78.134 110 82C110 85.866 113.134 89 117 89H171C174.866 89 178 85.866 178 82C178 78.134 174.866 75 171 75Z" fill="#ECEFF1"/>
<path d="M358 83H353V88C353 88.55 352.55 89 352 89C351.45 89 351 88.55 351 88V83H346C345.45 83 345 82.55 345 82C345 81.45 345.45 81 346 81H351V76C351 75.45 351.45 75 352 75C352.55 75 353 75.45 353 76V81H358C358.55 81 359 81.45 359 82C359 82.55 358.55 83 358 83Z" fill="#CFD8DC"/>
<path d="M78 136C78 133.239 75.7614 131 73 131C70.2386 131 68 133.239 68 136C68 138.761 70.2386 141 73 141C75.7614 141 78 138.761 78 136Z" fill="#EC4899"/>
<path d="M140 131H99C96.2386 131 94 133.239 94 136C94 138.761 96.2386 141 99 141H140C142.761 141 145 138.761 145 136C145 133.239 142.761 131 140 131Z" fill="#ECEFF1"/>
<path d="M173 131H158C155.239 131 153 133.239 153 136C153 138.761 155.239 141 158 141H173C175.761 141 178 138.761 178 136C178 133.239 175.761 131 173 131Z" fill="#ECEFF1"/>
<path d="M354 126H340C334.477 126 330 130.477 330 136C330 141.523 334.477 146 340 146H354C359.523 146 364 141.523 364 136C364 130.477 359.523 126 354 126Z" fill="#EC4899"/>
<path d="M353.873 143C357.668 143 360.745 139.866 360.745 136C360.745 132.134 357.668 129 353.873 129C350.077 129 347 132.134 347 136C347 139.866 350.077 143 353.873 143Z" fill="white"/>
<path d="M78 175C78 172.239 75.7614 170 73 170C70.2386 170 68 172.239 68 175C68 177.761 70.2386 180 73 180C75.7614 180 78 177.761 78 175Z" fill="#CFD8DC"/>
<path d="M127 170H99C96.2386 170 94 172.239 94 175C94 177.761 96.2386 180 99 180H127C129.761 180 132 177.761 132 175C132 172.239 129.761 170 127 170Z" fill="#ECEFF1"/>
<path d="M180 170H145C142.239 170 140 172.239 140 175C140 177.761 142.239 180 145 180H180C182.761 180 185 177.761 185 175C185 172.239 182.761 170 180 170Z" fill="#ECEFF1"/>
<path d="M208 170H198C195.239 170 193 172.239 193 175C193 177.761 195.239 180 198 180H208C210.761 180 213 177.761 213 175C213 172.239 210.761 170 208 170Z" fill="#ECEFF1"/>
<path d="M354 165H340C334.477 165 330 169.477 330 175C330 180.523 334.477 185 340 185H354C359.523 185 364 180.523 364 175C364 169.477 359.523 165 354 165Z" fill="#EC4899"/>
<path d="M353.873 182C357.668 182 360.745 178.866 360.745 175C360.745 171.134 357.668 168 353.873 168C350.077 168 347 171.134 347 175C347 178.866 350.077 182 353.873 182Z" fill="white"/>
<path d="M78 214C78 211.239 75.7614 209 73 209C70.2386 209 68 211.239 68 214C68 216.761 70.2386 219 73 219C75.7614 219 78 216.761 78 214Z" fill="#CFD8DC"/>
<path d="M116 209H99C96.2386 209 94 211.239 94 214C94 216.761 96.2386 219 99 219H116C118.761 219 121 216.761 121 214C121 211.239 118.761 209 116 209Z" fill="#ECEFF1"/>
<path d="M138 209H134C131.239 209 129 211.239 129 214C129 216.761 131.239 219 134 219H138C140.761 219 143 216.761 143 214C143 211.239 140.761 209 138 209Z" fill="#ECEFF1"/>
<path d="M173 209H156C153.239 209 151 211.239 151 214C151 216.761 153.239 219 156 219H173C175.761 219 178 216.761 178 214C178 211.239 175.761 209 173 209Z" fill="#ECEFF1"/>
<path d="M340 204H354C359.523 204 364 208.477 364 214C364 219.523 359.523 224 354 224H340C334.477 224 330 219.523 330 214C330 208.477 334.477 204 340 204Z" fill="#CFD8DC"/>
<path d="M340.127 221C336.332 221 333.255 217.866 333.255 214C333.255 210.134 336.332 207 340.127 207C343.923 207 347 210.134 347 214C347 217.866 343.923 221 340.127 221Z" fill="white"/>
<path d="M78 253C78 250.239 75.7614 248 73 248C70.2386 248 68 250.239 68 253C68 255.761 70.2386 258 73 258C75.7614 258 78 255.761 78 253Z" fill="#CFD8DC"/>
<path d="M129 248H99C96.2386 248 94 250.239 94 253C94 255.761 96.2386 258 99 258H129C131.761 258 134 255.761 134 253C134 250.239 131.761 248 129 248Z" fill="#ECEFF1"/>
<path d="M340 243H354C359.523 243 364 247.477 364 253C364 258.523 359.523 263 354 263H340C334.477 263 330 258.523 330 253C330 247.477 334.477 243 340 243Z" fill="#CFD8DC"/>
<path d="M340.127 260C336.332 260 333.255 256.866 333.255 253C333.255 249.134 336.332 246 340.127 246C343.923 246 347 249.134 347 253C347 256.866 343.923 260 340.127 260Z" fill="white"/>
</g>
<defs>
<filter id="filter0_d_799_1778" x="-2" y="10" width="436" height="330" filterUnits="userSpaceOnUse" color-interpolation-filters="sRGB">
<feFlood flood-opacity="0" result="BackgroundImageFix"/>
<feColorMatrix in="SourceAlpha" type="matrix" values="0 0 0 0 0 0 0 0 0 0 0 0 0 0 0 0 0 0 127 0" result="hardAlpha"/>
<feOffset dy="10"/>
<feGaussianBlur stdDeviation="19"/>
<feColorMatrix type="matrix" values="0 0 0 0 0.0941176 0 0 0 0 0.152941 0 0 0 0 0.294118 0 0 0 0.06 0"/>
<feBlend mode="normal" in2="BackgroundImageFix" result="effect1_dropShadow_799_1778"/>
<feBlend mode="normal" in="SourceGraphic" in2="effect1_dropShadow_799_1778" result="shape"/>
</filter>
<clipPath id="clip0_799_1778">
<rect width="560" height="376" fill="white"/>
</clipPath>
<clipPath id="clip1_799_1778">
<rect x="84" y="72" width="440" height="266" rx="16" fill="white"/>
</clipPath>
</defs>
</svg>
