<svg width="560" height="652" viewBox="0 0 560 652" fill="none" xmlns="http://www.w3.org/2000/svg">
<g clip-path="url(#clip0_797_1316)">
<g clip-path="url(#clip1_797_1316)">
<rect x="84" y="72" width="440" height="544" rx="16" fill="#4074BC" fill-opacity="0.03"/>
<rect x="-200" y="370" width="512" height="260" rx="16" fill="white"/>
<path opacity="0.3" d="M-42.831 631.07L-47.8281 641.828H311.999V535.363L307.002 536.377C302.004 537.394 292.008 539.425 282.014 548.573C272.018 557.72 262.023 573.986 252.027 580.543C242.033 587.1 232.036 583.951 222.042 564.162C212.048 544.375 202.051 507.948 192.057 502.161C182.061 496.374 172.067 521.226 162.07 522.982C152.076 524.736 142.08 503.391 132.085 509.881C122.091 516.371 112.095 550.693 102.1 560.263C92.1042 569.831 82.1098 554.649 72.1135 559.866C62.1192 565.082 52.1229 590.698 42.1286 601.993C32.1343 613.291 22.138 610.266 12.1437 603.759C2.14742 597.254 -7.84694 587.266 -17.8432 593.03C-27.8375 598.796 -37.8338 620.312 -42.831 631.07Z" fill="#E2E8F0"/>
<path d="M-47.8281 641.828L-42.831 631.07C-37.8338 620.312 -27.8375 598.796 -17.8432 593.03C-7.84694 587.266 2.14742 597.254 12.1437 603.759C22.138 610.266 32.1343 613.291 42.1286 601.993C52.1229 590.698 62.1192 565.082 72.1135 559.866C82.1098 554.649 92.1042 569.831 102.1 560.263C112.095 550.693 122.091 516.371 132.085 509.881C142.08 503.391 152.076 524.736 162.07 522.982C172.067 521.226 182.061 496.374 192.057 502.161C202.051 507.948 212.048 544.375 222.042 564.162C232.036 583.951 242.033 587.1 252.027 580.543C262.023 573.986 272.018 557.72 282.014 548.573C292.008 539.425 302.004 537.394 307.002 536.377L311.999 535.363" stroke="#E2E8F0" stroke-width="2" stroke-linecap="round"/>
<path d="M230.078 403.77H176.77C172.086 403.77 168.289 407.567 168.289 412.25C168.289 416.934 172.086 420.731 176.77 420.731H230.078C234.761 420.731 238.558 416.934 238.558 412.25C238.558 407.567 234.761 403.77 230.078 403.77Z" fill="#F1F5F9"/>
<path d="M273.692 403.77H256.731C252.047 403.77 248.25 407.567 248.25 412.25C248.25 416.934 252.047 420.731 256.731 420.731H273.692C278.376 420.731 282.173 416.934 282.173 412.25C282.173 407.567 278.376 403.77 273.692 403.77Z" fill="#F1F5F9"/>
<rect x="348" y="370" width="394" height="255" rx="16" fill="white"/>
<path d="M401 402H387C383.134 402 380 405.134 380 409C380 412.866 383.134 416 387 416H401C404.866 416 408 412.866 408 409C408 405.134 404.866 402 401 402Z" fill="#F1F5F9"/>
<path d="M494 402H423C419.134 402 416 405.134 416 409C416 412.866 419.134 416 423 416H494C497.866 416 501 412.866 501 409C501 405.134 497.866 402 494 402Z" fill="#F1F5F9"/>
<path d="M389 585H384C381.791 585 380 586.791 380 589C380 591.209 381.791 593 384 593H389C391.209 593 393 591.209 393 589C393 586.791 391.209 585 389 585Z" fill="#ECEFF1"/>
<path d="M499.191 585H483.191C480.982 585 479.191 586.791 479.191 589C479.191 591.209 480.982 593 483.191 593H499.191C501.401 593 503.191 591.209 503.191 589C503.191 586.791 501.401 585 499.191 585Z" fill="#ECEFF1"/>
<path d="M379.695 569V458" stroke="#ECEFF1" stroke-width="0.611765"/>
<path d="M478.695 569V458" stroke="#ECEFF1" stroke-width="0.611765"/>
<path d="M461 458H384C381.791 458 380 459.791 380 462C380 464.209 381.791 466 384 466H461C463.209 466 465 464.209 465 462C465 459.791 463.209 458 461 458Z" fill="#F1F5F9"/>
<path d="M536 470H384C381.791 470 380 471.791 380 474C380 476.209 381.791 478 384 478H536C538.209 478 540 476.209 540 474C540 471.791 538.209 470 536 470Z" fill="#E2E8F0"/>
<path d="M414 503.5H384C381.791 503.5 380 505.291 380 507.5C380 509.709 381.791 511.5 384 511.5H414C416.209 511.5 418 509.709 418 507.5C418 505.291 416.209 503.5 414 503.5Z" fill="#F1F5F9"/>
<path d="M497 515.5H384C381.791 515.5 380 517.291 380 519.5C380 521.709 381.791 523.5 384 523.5H497C499.209 523.5 501 521.709 501 519.5C501 517.291 499.209 515.5 497 515.5Z" fill="#E2E8F0"/>
<path d="M591 549H384C381.791 549 380 550.791 380 553C380 555.209 381.791 557 384 557H591C593.209 557 595 555.209 595 553C595 550.791 593.209 549 591 549Z" fill="#F1F5F9"/>
<path d="M684 561H384C381.791 561 380 562.791 380 565C380 567.209 381.791 569 384 569H684C686.209 569 688 567.209 688 565C688 562.791 686.209 561 684 561Z" fill="#E2E8F0"/>
</g>
<rect x="84.5" y="72.5" width="439" height="543" rx="15.5" stroke="#94A3B8" stroke-opacity="0.1"/>
<g filter="url(#filter0_d_797_1316)">
<rect x="36" y="38" width="360" height="296" rx="16" fill="white"/>
</g>
<path d="M95 75H75C71.134 75 68 78.134 68 82C68 85.866 71.134 89 75 89H95C98.866 89 102 85.866 102 82C102 78.134 98.866 75 95 75Z" fill="#ECEFF1"/>
<path d="M171 75H117C113.134 75 110 78.134 110 82C110 85.866 113.134 89 117 89H171C174.866 89 178 85.866 178 82C178 78.134 174.866 75 171 75Z" fill="#ECEFF1"/>
<path d="M358 83H353V88C353 88.55 352.55 89 352 89C351.45 89 351 88.55 351 88V83H346C345.45 83 345 82.55 345 82C345 81.45 345.45 81 346 81H351V76C351 75.45 351.45 75 352 75C352.55 75 353 75.45 353 76V81H358C358.55 81 359 81.45 359 82C359 82.55 358.55 83 358 83Z" fill="#CFD8DC"/>
<path d="M78 136C78 133.239 75.7614 131 73 131C70.2386 131 68 133.239 68 136C68 138.761 70.2386 141 73 141C75.7614 141 78 138.761 78 136Z" fill="#EC4899"/>
<path d="M140 131H99C96.2386 131 94 133.239 94 136C94 138.761 96.2386 141 99 141H140C142.761 141 145 138.761 145 136C145 133.239 142.761 131 140 131Z" fill="#ECEFF1"/>
<path d="M173 131H158C155.239 131 153 133.239 153 136C153 138.761 155.239 141 158 141H173C175.761 141 178 138.761 178 136C178 133.239 175.761 131 173 131Z" fill="#ECEFF1"/>
<path d="M354 126H340C334.477 126 330 130.477 330 136C330 141.523 334.477 146 340 146H354C359.523 146 364 141.523 364 136C364 130.477 359.523 126 354 126Z" fill="#EC4899"/>
<path d="M353.873 143C357.668 143 360.745 139.866 360.745 136C360.745 132.134 357.668 129 353.873 129C350.077 129 347 132.134 347 136C347 139.866 350.077 143 353.873 143Z" fill="white"/>
<path d="M78 175C78 172.239 75.7614 170 73 170C70.2386 170 68 172.239 68 175C68 177.761 70.2386 180 73 180C75.7614 180 78 177.761 78 175Z" fill="#CFD8DC"/>
<path d="M127 170H99C96.2386 170 94 172.239 94 175C94 177.761 96.2386 180 99 180H127C129.761 180 132 177.761 132 175C132 172.239 129.761 170 127 170Z" fill="#ECEFF1"/>
<path d="M180 170H145C142.239 170 140 172.239 140 175C140 177.761 142.239 180 145 180H180C182.761 180 185 177.761 185 175C185 172.239 182.761 170 180 170Z" fill="#ECEFF1"/>
<path d="M208 170H198C195.239 170 193 172.239 193 175C193 177.761 195.239 180 198 180H208C210.761 180 213 177.761 213 175C213 172.239 210.761 170 208 170Z" fill="#ECEFF1"/>
<path d="M354 165H340C334.477 165 330 169.477 330 175C330 180.523 334.477 185 340 185H354C359.523 185 364 180.523 364 175C364 169.477 359.523 165 354 165Z" fill="#EC4899"/>
<path d="M353.873 182C357.668 182 360.745 178.866 360.745 175C360.745 171.134 357.668 168 353.873 168C350.077 168 347 171.134 347 175C347 178.866 350.077 182 353.873 182Z" fill="white"/>
<path d="M78 214C78 211.239 75.7614 209 73 209C70.2386 209 68 211.239 68 214C68 216.761 70.2386 219 73 219C75.7614 219 78 216.761 78 214Z" fill="#CFD8DC"/>
<path d="M116 209H99C96.2386 209 94 211.239 94 214C94 216.761 96.2386 219 99 219H116C118.761 219 121 216.761 121 214C121 211.239 118.761 209 116 209Z" fill="#ECEFF1"/>
<path d="M138 209H134C131.239 209 129 211.239 129 214C129 216.761 131.239 219 134 219H138C140.761 219 143 216.761 143 214C143 211.239 140.761 209 138 209Z" fill="#ECEFF1"/>
<path d="M173 209H156C153.239 209 151 211.239 151 214C151 216.761 153.239 219 156 219H173C175.761 219 178 216.761 178 214C178 211.239 175.761 209 173 209Z" fill="#ECEFF1"/>
<path d="M340 204H354C359.523 204 364 208.477 364 214C364 219.523 359.523 224 354 224H340C334.477 224 330 219.523 330 214C330 208.477 334.477 204 340 204Z" fill="#CFD8DC"/>
<path d="M340.127 221C336.332 221 333.255 217.866 333.255 214C333.255 210.134 336.332 207 340.127 207C343.923 207 347 210.134 347 214C347 217.866 343.923 221 340.127 221Z" fill="white"/>
<path d="M78 253C78 250.239 75.7614 248 73 248C70.2386 248 68 250.239 68 253C68 255.761 70.2386 258 73 258C75.7614 258 78 255.761 78 253Z" fill="#CFD8DC"/>
<path d="M129 248H99C96.2386 248 94 250.239 94 253C94 255.761 96.2386 258 99 258H129C131.761 258 134 255.761 134 253C134 250.239 131.761 248 129 248Z" fill="#ECEFF1"/>
<path d="M340 243H354C359.523 243 364 247.477 364 253C364 258.523 359.523 263 354 263H340C334.477 263 330 258.523 330 253C330 247.477 334.477 243 340 243Z" fill="#CFD8DC"/>
<path d="M340.127 260C336.332 260 333.255 256.866 333.255 253C333.255 249.134 336.332 246 340.127 246C343.923 246 347 249.134 347 253C347 256.866 343.923 260 340.127 260Z" fill="white"/>
<path d="M78 292C78 289.239 75.7614 287 73 287C70.2386 287 68 289.239 68 292C68 294.761 70.2386 297 73 297C75.7614 297 78 294.761 78 292Z" fill="#CFD8DC"/>
<path d="M110 287H99C96.2386 287 94 289.239 94 292C94 294.761 96.2386 297 99 297H110C112.761 297 115 294.761 115 292C115 289.239 112.761 287 110 287Z" fill="#ECEFF1"/>
<path d="M166 287H128C125.239 287 123 289.239 123 292C123 294.761 125.239 297 128 297H166C168.761 297 171 294.761 171 292C171 289.239 168.761 287 166 287Z" fill="#ECEFF1"/>
<path d="M340 282H354C359.523 282 364 286.477 364 292C364 297.523 359.523 302 354 302H340C334.477 302 330 297.523 330 292C330 286.477 334.477 282 340 282Z" fill="#CFD8DC"/>
<path d="M340.127 299C336.332 299 333.255 295.866 333.255 292C333.255 288.134 336.332 285 340.127 285C343.923 285 347 288.134 347 292C347 295.866 343.923 299 340.127 299Z" fill="white"/>
</g>
<defs>
<filter id="filter0_d_797_1316" x="-2" y="10" width="436" height="372" filterUnits="userSpaceOnUse" color-interpolation-filters="sRGB">
<feFlood flood-opacity="0" result="BackgroundImageFix"/>
<feColorMatrix in="SourceAlpha" type="matrix" values="0 0 0 0 0 0 0 0 0 0 0 0 0 0 0 0 0 0 127 0" result="hardAlpha"/>
<feOffset dy="10"/>
<feGaussianBlur stdDeviation="19"/>
<feColorMatrix type="matrix" values="0 0 0 0 0.0941176 0 0 0 0 0.152941 0 0 0 0 0.294118 0 0 0 0.06 0"/>
<feBlend mode="normal" in2="BackgroundImageFix" result="effect1_dropShadow_797_1316"/>
<feBlend mode="normal" in="SourceGraphic" in2="effect1_dropShadow_797_1316" result="shape"/>
</filter>
<clipPath id="clip0_797_1316">
<rect width="560" height="652" fill="white"/>
</clipPath>
<clipPath id="clip1_797_1316">
<rect x="84" y="72" width="440" height="544" rx="16" fill="white"/>
</clipPath>
</defs>
</svg>
